<?xml version="1.0" encoding="utf-8"?>
<!-- Generator: Adobe Illustrator 19.0.0, SVG Export Plug-In . SVG Version: 6.00 Build 0)  -->
<svg version="1.1" id="Layer_1" xmlns="http://www.w3.org/2000/svg" xmlns:xlink="http://www.w3.org/1999/xlink" x="0px" y="0px"
	 viewBox="-2577.3 2585.5 15.8 15.8" style="enable-background:new -2577.3 2585.5 15.8 15.8;" xml:space="preserve">
<g id="documents_download_icon" transform="translate(0.25 0.25)">
	<g id="Group_1542" transform="translate(6.918)">
		<g id="Group_1541">
			<g>
				<path d="M-2573.9,2593.6l-2,2.6c0,0-0.1,0.1-0.2,0.1c0,0,0,0-0.1,0c-0.1,0.1-0.2,0.1-0.4,0.1c-0.1,0-0.2,0-0.3-0.1
					c0,0-0.1,0-0.1-0.1c-0.1,0-0.1-0.1-0.2-0.1l0,0l-1.9-2.6c-0.1-0.1-0.2-0.3-0.2-0.5c0-0.2,0.1-0.4,0.2-0.6s0.4-0.2,0.6-0.2h1.1
					v-6.2c0-0.4,0.4-0.8,0.8-0.8c0.2,0,0.4,0.1,0.6,0.2c0.2,0.1,0.3,0.4,0.3,0.6v6.3h1.1c0.3,0,0.6,0.2,0.7,0.5
					S-2573.8,2593.4-2573.9,2593.6z"/>
			</g>
		</g>
	</g>
	<g id="Group_1544" transform="translate(0 12.971)">
		<g id="Group_1543">
			<g>
				<path d="M-2561.7,2582.7v1.9c0,1.9-1.5,3.4-3.4,3.4h-9c-1.9,0-3.4-1.5-3.4-3.4v-1.9c0-0.4,0.4-0.8,0.8-0.8
					c0.2,0,0.4,0.1,0.6,0.2c0.2,0.1,0.3,0.4,0.3,0.6v1.9c0,1,0.8,1.7,1.7,1.7h9c1,0,1.7-0.8,1.7-1.7v-1.9c0-0.5,0.4-0.8,0.8-0.8
					C-2562.1,2581.9-2561.7,2582.3-2561.7,2582.7z"/>
			</g>
		</g>
	</g>
</g>
</svg>
