<?xml version="1.0" encoding="utf-8"?>
<!-- Generator: Adobe Illustrator 19.0.0, SVG Export Plug-In . SVG Version: 6.00 Build 0)  -->
<svg version="1.1" id="Layer_1" xmlns="http://www.w3.org/2000/svg" xmlns:xlink="http://www.w3.org/1999/xlink" x="0px" y="0px"
	 viewBox="-2530.8 2585.5 15.8 15.8" style="enable-background:new -2530.8 2585.5 15.8 15.8;" xml:space="preserve">
<g id="fikrati_icon" transform="translate(-1581.635 -1200)">
	<path d="M-941.4,3801.2c-0.5,0-0.9-0.3-1-0.7l0-0.1h-0.5c-0.1,0-0.2-0.1-0.2-0.2v-2.3c0-1.1-0.4-2.2-1.2-3c-0.8-0.8-1.2-1.8-1.2-3
		c0-2.3,1.9-4.2,4.2-4.2c1.1,0,2.2,0.4,2.9,1.2c1.7,1.6,1.7,4.3,0.1,5.9c-0.8,0.8-1.2,1.9-1.2,3v2.3c0,0.1-0.1,0.2-0.2,0.2h-0.6
		l0,0.1c-0.1,0.3-0.4,0.6-0.7,0.7C-941.2,3801.2-941.3,3801.2-941.4,3801.2z M-941.9,3800.5c0.1,0.1,0.3,0.2,0.5,0.2
		s0.4-0.1,0.5-0.2l0.1-0.2h-1.2L-941.9,3800.5z M-942.7,3799.9h2.7v-1.4h-2.7V3799.9z M-941.4,3788.2c-1,0-1.9,0.4-2.6,1.1
		c-0.7,0.7-1.1,1.6-1.1,2.6c0,1,0.4,2,1.1,2.7c0.9,0.9,1.4,2.1,1.4,3.3v0.2h2.7v-0.2c0-1.2,0.5-2.4,1.3-3.3c1.4-1.5,1.4-3.8,0-5.3
		C-939.4,3788.6-940.3,3788.2-941.4,3788.2z"/>
	<path d="M-945.9,3799c0,0-0.1,0-0.1,0c-0.1-0.1-0.1-0.2,0-0.3l0.3-0.4c0-0.1,0.1-0.1,0.2-0.1c0,0,0.1,0,0.1,0c0,0,0.1,0.1,0.1,0.1
		c0,0.1,0,0.1,0,0.2l-0.3,0.4C-945.8,3799-945.9,3799-945.9,3799z M-937.4,3797.7c-0.1,0-0.1,0-0.2-0.1l-0.7-0.9c0,0,0-0.1,0-0.2
		s0-0.1,0.1-0.1c0,0,0.1,0,0.1,0c0.1,0,0.1,0,0.2,0.1l0.7,0.9c0,0,0,0.1,0,0.2s0,0.1-0.1,0.1
		C-937.3,3797.7-937.4,3797.7-937.4,3797.7z M-944.9,3797.6c0,0-0.1,0-0.1,0c-0.1-0.1-0.1-0.2,0-0.3l0.3-0.4c0-0.1,0.1-0.1,0.2-0.1
		c0,0,0.1,0,0.1,0c0.1,0.1,0.1,0.2,0,0.3l-0.3,0.4C-944.8,3797.5-944.8,3797.6-944.9,3797.6z M-947.4,3794.6c-0.1,0-0.2-0.1-0.2-0.1
		c0-0.1,0-0.2,0.1-0.3l1.1-0.4c0,0,0,0,0,0c0.1,0,0.2,0.1,0.2,0.1c0,0.1,0,0.1,0,0.2c0,0.1-0.1,0.1-0.1,0.1L-947.4,3794.6
		L-947.4,3794.6z M-935.1,3794.4C-935.1,3794.4-935.2,3794.4-935.1,3794.4l-1.2-0.4c-0.1,0-0.1-0.1-0.1-0.1c0-0.1,0-0.1,0-0.2
		c0-0.1,0.1-0.1,0.2-0.1l1.2,0.4c0.1,0,0.1,0.1,0.1,0.1c0,0.1,0,0.1,0,0.2C-934.9,3794.4-935,3794.4-935.1,3794.4z M-946.4,3790.5
		C-946.4,3790.5-946.4,3790.5-946.4,3790.5l-1.2-0.4c-0.1,0-0.2-0.2-0.1-0.3c0-0.1,0.1-0.1,0.2-0.1l1.2,0.4c0.1,0,0.1,0.1,0.1,0.1
		c0,0.1,0,0.1,0,0.2C-946.2,3790.5-946.3,3790.5-946.4,3790.5z M-936.2,3790.4c-0.1,0-0.2-0.1-0.2-0.1c0-0.1,0-0.1,0-0.2
		c0-0.1,0.1-0.1,0.1-0.1l0.8-0.3c0,0,0,0,0,0c0.1,0,0.2,0.1,0.2,0.1c0,0.1,0,0.2-0.1,0.3L-936.2,3790.4L-936.2,3790.4z
		 M-944.5,3788.2c-0.1,0-0.1,0-0.2-0.1l-0.6-0.9c0,0,0-0.1,0-0.2c0-0.1,0-0.1,0.1-0.1c0,0,0.1,0,0.1,0c0.1,0,0.1,0,0.2,0.1l0.6,0.9
		c0,0,0,0.1,0,0.2c0,0.1,0,0.1-0.1,0.1C-944.4,3788.2-944.4,3788.2-944.5,3788.2z M-938.2,3788.1c0,0-0.1,0-0.1,0
		c-0.1-0.1-0.1-0.2,0-0.3l0.7-0.9c0-0.1,0.1-0.1,0.2-0.1c0,0,0.1,0,0.1,0c0.1,0.1,0.1,0.2,0,0.3l-0.7,0.9
		C-938.1,3788.1-938.1,3788.1-938.2,3788.1z M-941.4,3787.2c-0.1,0-0.2-0.1-0.2-0.2v-1.1c0-0.1,0.1-0.2,0.2-0.2
		c0.1,0,0.2,0.1,0.2,0.2v1.1C-941.1,3787.1-941.2,3787.2-941.4,3787.2z M-945.8,3786.5c-0.1,0-0.1,0-0.2-0.1l-0.2-0.3
		c-0.1-0.1,0-0.2,0-0.3c0,0,0.1,0,0.1,0c0.1,0,0.1,0,0.2,0.1l0.2,0.3c0.1,0.1,0,0.2,0,0.3C-945.7,3786.4-945.7,3786.5-945.8,3786.5z
		"/>
	<path d="M-944.1,3792.1c-0.1,0-0.2-0.1-0.2-0.2c0-1.3,0.9-2.5,2.2-2.9c0,0,0,0,0,0c0.1,0,0.2,0.1,0.2,0.1c0,0.1,0,0.2-0.1,0.3
		c-1.1,0.3-1.9,1.3-1.9,2.5C-943.9,3792-944,3792.1-944.1,3792.1z M-939.7,3789.9c0,0-0.1,0-0.1,0c-0.3-0.2-0.7-0.4-1-0.5
		c-0.1,0-0.2-0.1-0.2-0.3c0-0.1,0.1-0.2,0.2-0.2c0.5,0.1,0.9,0.3,1.2,0.6c0.1,0.1,0.1,0.2,0,0.3
		C-939.5,3789.9-939.6,3789.9-939.7,3789.9z"/>
</g>
</svg>
