<?xml version="1.0" encoding="utf-8"?>
<!-- Generator: Adobe Illustrator 19.0.0, SVG Export Plug-In . SVG Version: 6.00 Build 0)  -->
<svg version="1.1" id="Layer_1" xmlns="http://www.w3.org/2000/svg" xmlns:xlink="http://www.w3.org/1999/xlink" x="0px" y="0px"
	 viewBox="-2583 2585.2 15.8 15.8" style="enable-background:new -2583 2585.2 15.8 15.8;" xml:space="preserve">
<path d="M-2581.3,2589.1c0-1.2,1-2.3,2.1-2.3c-0.8,1.5-0.8,3.1,0,4.6C-2580.5,2591.4-2581.3,2590.4-2581.3,2589.1z M-2578.4,2592.7
	c-2.1-0.4-4.2,1-4.6,3.1v0.8c0,0.4,0.4,0.8,0.8,0.8C-2581.5,2595.6-2580.1,2593.9-2578.4,2592.7z M-2575.1,2592.1
	c1.7,0,3.1-1.5,3.1-3.1c0-1.7-1.5-3.1-3.1-3.1c-1.7,0-3.1,1.5-3.1,3.1C-2578.2,2590.6-2576.8,2592.1-2575.1,2592.1z M-2568.9,2589.1
	c0-1.2-0.8-2.3-2.1-2.3c0.8,1.2,0.8,3.1,0,4.6C-2569.7,2591.2-2568.9,2590.4-2568.9,2589.1z M-2575.3,2593.7c-3.3,0-5.8,2.7-5.8,5.8
	c0,0.4,0.4,0.8,0.8,0.8h10.2c0.4,0,0.8-0.4,0.6-0.8C-2569.5,2596.4-2572.2,2593.7-2575.3,2593.7z M-2568.4,2594.1
	c-0.6-0.8-1.7-1.2-2.7-1.2h-0.8c1.9,0.8,3.3,2.5,3.9,4.6c0.4,0,0.8-0.2,0.8-0.6C-2567.2,2595.8-2567.8,2594.8-2568.4,2594.1z"/>
</svg>
