<?xml version="1.0" encoding="utf-8"?>
<!-- Generator: Adobe Illustrator 19.0.0, SVG Export Plug-In . SVG Version: 6.00 Build 0)  -->
<svg version="1.1" id="Layer_1" xmlns="http://www.w3.org/2000/svg" xmlns:xlink="http://www.w3.org/1999/xlink" x="0px" y="0px"
	 viewBox="-2583 2585 16 16" style="enable-background:new -2583 2585 16 16;" xml:space="preserve">
<style type="text/css">
	.st0{enable-background:new    ;}
</style>
<path id="search_icon" class="st0" d="M-2570.3,2596.2c0.9-1.2,1.4-2.7,1.4-4.2c0-3.9-3.1-7-7-7.1c0,0,0,0,0,0
	c-3.9,0-7.1,3.2-7.1,7.1c0,3.9,3.2,7.1,7.1,7.1c1.5,0,3-0.5,4.2-1.4l3,3c0.4,0.4,1,0.4,1.4,0c0,0,0,0,0,0c0.4-0.4,0.4-1,0-1.4
	c0,0,0,0,0,0L-2570.3,2596.2z M-2575.9,2597c-2.8,0-5.1-2.2-5.1-4.9c0,0,0,0,0,0c0-2.8,2.3-5.1,5.1-5.1s5.1,2.3,5.1,5.1
	C-2570.8,2594.8-2573.1,2597.1-2575.9,2597C-2575.9,2597-2575.9,2597-2575.9,2597L-2575.9,2597z"/>
</svg>
