<svg xmlns="http://www.w3.org/2000/svg" width="108.532" height="186.022" viewBox="0 0 108.532 186.022">
  <g id="logo" transform="translate(6516.124 -3002)">
    <g id="Group_1575" data-name="Group 1575" transform="translate(-6516.124 3156.619)">
      <path id="Path_3923" data-name="Path 3923" d="M606.142,214.731a.649.649,0,0,1-.639.637.64.64,0,0,1-.627-.637.632.632,0,0,1,.627-.627.641.641,0,0,1,.639.627m4.753,3.457h-2q-.165,2.359-3.282,2.357a3.162,3.162,0,0,1-3-1.362,6.065,6.065,0,0,1-.523-3.077l1.15-.346v1.067c0,1.915.666,2.664,2.384,2.664,1.411,0,2.115-.552,2.115-1.667v-3.658l1.164-.354v3.346H610.9Z" transform="translate(-602.088 -210.278)" fill="#7b6e66"/>
      <path id="Path_3924" data-name="Path 3924" d="M611.2,220.381a.648.648,0,0,1-.637.635.641.641,0,0,1-.629-.635.632.632,0,0,1,.629-.629.639.639,0,0,1,.637.629m-1.643,0a.652.652,0,0,1-.641.635.633.633,0,0,1-.627-.635.624.624,0,0,1,.627-.629.643.643,0,0,1,.641.629m2.628-1.722h-.737a2.264,2.264,0,0,1-1.708-.649,2.315,2.315,0,0,1-1.745.649h-.881v-1h.807a1.1,1.1,0,0,0,1.232-1.252v-2.93l1.154-.342v3.307a1.075,1.075,0,0,0,1.217,1.217h.662Z" transform="translate(-598.599 -210.75)" fill="#7b6e66"/>
      <path id="Path_3925" data-name="Path 3925" d="M616.108,218.662h-6.176V217.63h1.4v-2.1a2.411,2.411,0,0,1,.649-1.718,2.455,2.455,0,0,1,1.83-.685,2.409,2.409,0,0,1,1.732.722l-.857.786a1.285,1.285,0,0,0-1.012-.529,1.162,1.162,0,0,0-1.178,1.23v2.289h3.609Z" transform="translate(-596.642 -210.75)" fill="#7b6e66"/>
      <path id="Path_3926" data-name="Path 3926" d="M616.5,217.381a2.11,2.11,0,0,1-.625,1.559,2.333,2.333,0,0,1-1.684.612h-.781V218.52h.72c.8,0,1.2-.413,1.2-1.25v-5.078l1.166-.342Z" transform="translate(-594.23 -211.641)" fill="#7b6e66"/>
      <path id="Path_3927" data-name="Path 3927" d="M618.776,219.562h-1.3a1.48,1.48,0,0,1-1.622-1.581V212.2l1.166-.369v6.11a.524.524,0,0,0,.6.586h1.154Z" transform="translate(-592.53 -211.651)" fill="#7b6e66"/>
      <path id="Path_3928" data-name="Path 3928" d="M619.914,220.381a.633.633,0,1,1-1.266,0,.633.633,0,0,1,1.266,0m.737-3.89a2.092,2.092,0,0,1-.625,1.559,2.333,2.333,0,0,1-1.686.61H617.4v-1h.883a1.09,1.09,0,0,0,1.217-1.25v-2.931l1.154-.342Z" transform="translate(-591.457 -210.75)" fill="#7b6e66"/>
      <path id="Path_3929" data-name="Path 3929" d="M627.038,213.48a.633.633,0,1,1-1.266,0,.633.633,0,1,1,1.266,0m-1.645,0a.64.64,0,0,1-.639.635.626.626,0,0,1-.624-.635.635.635,0,0,1,.624-.639.649.649,0,0,1,.639.639m4.617,3.275a2.056,2.056,0,0,1-2.308,2.11h-4.36a2.043,2.043,0,0,1-2.211-2.11v-1.24l1.154-1.178v2.3a1.07,1.07,0,0,0,1.217,1.2h4.139a1.072,1.072,0,0,0,1.227-1.2v-3l1.142-.305Z" transform="translate(-588.865 -210.952)" fill="#7b6e66"/>
      <path id="Path_3930" data-name="Path 3930" d="M629.92,219.562h-1.306a1.481,1.481,0,0,1-1.62-1.581V212.2l1.166-.369v6.11c0,.395.2.586.607.586h1.154Z" transform="translate(-584.794 -211.651)" fill="#7b6e66"/>
      <path id="Path_3931" data-name="Path 3931" d="M631.056,212.377a.631.631,0,1,1-.639-.651.652.652,0,0,1,.639.651m.739,5.09a2.094,2.094,0,0,1-.627,1.559,2.335,2.335,0,0,1-1.684.61h-.942v-1h.883a1.087,1.087,0,0,0,1.213-1.25v-2.931l1.157-.342Z" transform="translate(-583.72 -211.726)" fill="#7b6e66"/>
      <path id="Path_3932" data-name="Path 3932" d="M631.084,212.2v7.357h1.166v-7.726Z" transform="translate(-581.954 -211.651)" fill="#7b6e66"/>
      <path id="Path_3933" data-name="Path 3933" d="M636.022,216.1a3.3,3.3,0,0,0-.164-1.24,1,1,0,0,0-1.018-.613c-.846,0-1.276.613-1.276,1.854,0,.993.454,1.494,1.362,1.494h1.081Zm3.133,2.5h-2.1a2.915,2.915,0,0,1-.8,1.645,2.381,2.381,0,0,1-1.781.712,2.721,2.721,0,0,1-1.437-.317l-.518-1.13a4.412,4.412,0,0,0,1.93.432,1.5,1.5,0,0,0,1.435-1.342h-.957a2.5,2.5,0,0,1-1.9-.735,2.468,2.468,0,0,1-.625-1.764,3.3,3.3,0,0,1,.542-1.964,2.191,2.191,0,0,1,1.9-.908c1.559,0,2.347.957,2.347,2.872,0,.378-.013.881-.027,1.494h2Z" transform="translate(-581.043 -210.686)" fill="#7b6e66"/>
      <path id="Path_3934" data-name="Path 3934" d="M640.57,220.381a.65.65,0,0,1-.639.635.639.639,0,0,1-.627-.635.63.63,0,0,1,.627-.629.64.64,0,0,1,.639.629m-1.649,0a.649.649,0,0,1-.635.635.632.632,0,0,1-.629-.635.623.623,0,0,1,.629-.629.64.64,0,0,1,.635.629m2-1.722h-.105a2.264,2.264,0,0,1-1.708-.649,2.313,2.313,0,0,1-1.743.649h-1.537v-1h1.461a1.093,1.093,0,0,0,1.228-1.252v-2.93l1.156-.342v3.307a1.076,1.076,0,0,0,1.215,1.217h.034Z" transform="translate(-578.66 -210.75)" fill="#7b6e66"/>
      <path id="Path_3935" data-name="Path 3935" d="M646.891,218.662H638.66v-1.007h5.515v-.439a5.747,5.747,0,0,0-.257-2.023,1.579,1.579,0,0,0-1.622-1.034,2.535,2.535,0,0,0-1.869.945l-.835-.771a3.823,3.823,0,0,1,2.7-1.2,2.667,2.667,0,0,1,2.579,1.349,6.027,6.027,0,0,1,.491,2.736v.413h1.525Z" transform="translate(-576.693 -210.75)" fill="#7b6e66"/>
      <path id="Path_3936" data-name="Path 3936" d="M646.44,217.381a2.108,2.108,0,0,1-.632,1.559,2.325,2.325,0,0,1-1.681.612h-.784V218.52h.727c.795,0,1.2-.413,1.2-1.25v-5.078l1.171-.342Z" transform="translate(-573.442 -211.641)" fill="#7b6e66"/>
      <path id="Path_3937" data-name="Path 3937" d="M645.795,212.2v7.357h1.164v-7.726Z" transform="translate(-571.739 -211.651)" fill="#7b6e66"/>
      <path id="Path_3938" data-name="Path 3938" d="M652.545,212.365a.651.651,0,0,1-.639.641.642.642,0,0,1-.627-.641.63.63,0,0,1,.627-.625.639.639,0,0,1,.639.625m-1.645,0a.645.645,0,0,1-1.289,0,.645.645,0,0,1,1.289,0m1.068,2.674h-1.252a1.075,1.075,0,0,0-1.01.481,2.648,2.648,0,0,0-.244,1.3,2.754,2.754,0,0,0,.244,1.313,1.286,1.286,0,0,0,2.02,0,2.737,2.737,0,0,0,.242-1.313Zm3.111,4.587h-.8c-.957,0-1.571-.281-1.826-.857a1.808,1.808,0,0,1-1.8.857c-1.561,0-2.352-.93-2.352-2.808,0-1.816.791-2.721,2.352-2.721h2.489v3.272a1.089,1.089,0,0,0,1.206,1.252h.739Z" transform="translate(-570.005 -211.716)" fill="#7b6e66"/>
      <path id="Path_3939" data-name="Path 3939" d="M656.983,212.365a.637.637,0,1,1-1.274,0,.637.637,0,0,1,1.274,0m-1.423,2.758a1.347,1.347,0,0,0-1.276,1.51,2.272,2.272,0,0,0,.307,1.181,1.806,1.806,0,0,0,.969.82,1.736,1.736,0,0,0,.971-.82,2.3,2.3,0,0,0,.32-1.181,1.338,1.338,0,0,0-1.291-1.51m-.222-2.758a.645.645,0,0,1-1.29,0,.645.645,0,0,1,1.29,0m3.611,7.26h-2.665a3.846,3.846,0,0,1-.724-.071,3.556,3.556,0,0,1-.725.071h-2.713v-1h1.8a2.614,2.614,0,0,1-.761-1.74,3.088,3.088,0,0,1,.476-1.9,2.23,2.23,0,0,1,1.918-.881,2.194,2.194,0,0,1,1.916.881,3.173,3.173,0,0,1,.5,1.9,2.732,2.732,0,0,1-.785,1.74h1.754Z" transform="translate(-567.345 -211.716)" fill="#7b6e66"/>
      <path id="Path_3940" data-name="Path 3940" d="M658.967,220.381a.638.638,0,0,1-.625.635.653.653,0,0,1-.652-.635.645.645,0,0,1,.652-.629.63.63,0,0,1,.625.629m-1.657,0a.632.632,0,1,1-.629-.629.637.637,0,0,1,.629.629m1.915-3.89a2.092,2.092,0,0,1-.625,1.559,2.327,2.327,0,0,1-1.684.61h-.944v-1h.884a1.089,1.089,0,0,0,1.215-1.25v-2.931l1.154-.342Z" transform="translate(-564.673 -210.75)" fill="#7b6e66"/>
      <path id="Path_3941" data-name="Path 3941" d="M665.087,218.656h-6.571l.7-1.006h3.021v-2.328c0-.8-.429-1.2-1.278-1.2a1.847,1.847,0,0,0-1.655,1.069v-1.325a2.542,2.542,0,0,1,1.655-.723,2.621,2.621,0,0,1,1.757.576,1.865,1.865,0,0,1,.678,1.518v2.391h1.694Z" transform="translate(-562.905 -210.745)" fill="#7b6e66"/>
      <path id="Path_3942" data-name="Path 3942" d="M669.015,218.662h-7.189v-1.007h6v-.439a5.74,5.74,0,0,0-.259-2.023,1.572,1.572,0,0,0-1.61-1.034,2.555,2.555,0,0,0-1.879.945l-.835-.771a3.824,3.824,0,0,1,2.714-1.2,2.673,2.673,0,0,1,2.582,1.349,6.244,6.244,0,0,1,.476,2.736Z" transform="translate(-560.607 -210.75)" fill="#7b6e66"/>
      <path id="Path_3943" data-name="Path 3943" d="M606.555,230.243h4.429l-2.133-7.2h-.046Zm.878-9.272H610.2l5.305,15.494h-2.386l-1.527-4.422h-5.553l-1.5,4.422h-2.386Z" transform="translate(-602.047 -205.306)" fill="#7b6e66"/>
      <path id="Path_3944" data-name="Path 3944" d="M611.583,220.971h2.248v13.7h5.959v1.8h-8.208Z" transform="translate(-595.495 -205.306)" fill="#7b6e66"/>
      <path id="Path_3945" data-name="Path 3945" d="M624.869,230.243H629.3l-2.137-7.2h-.042Zm.876-9.272h2.765l5.305,15.494H631.43l-1.528-4.422H624.35l-1.508,4.422H620.46Z" transform="translate(-589.331 -205.306)" fill="#7b6e66"/>
      <rect id="Rectangle_5766" data-name="Rectangle 5766" width="2.245" height="15.492" transform="translate(46.465 15.665)" fill="#7b6e66"/>
      <path id="Path_3946" data-name="Path 3946" d="M632.948,220.971h2.806l6.118,12.125h.046V220.971h2.025v15.492h-2.659l-6.268-12.415h-.046v12.415h-2.023Z" transform="translate(-580.659 -205.306)" fill="#7b6e66"/>
      <path id="Path_3947" data-name="Path 3947" d="M643.651,234.647l7.374-11.879h-6.993v-1.8h9.6v1.82l-7.33,11.876h7.689v1.8H643.651Z" transform="translate(-573.228 -205.306)" fill="#7b6e66"/>
      <path id="Path_3948" data-name="Path 3948" d="M656.679,235.016c3.1,0,3.6-3.66,3.6-6.2s-.5-6.2-3.6-6.2-3.575,3.662-3.575,6.2.471,6.2,3.575,6.2m-6.047-6.2c0-4.2,1.281-7.992,6.047-7.992s6.068,3.792,6.068,7.992c0,4.177-1.3,7.991-6.068,7.991s-6.047-3.814-6.047-7.991" transform="translate(-568.38 -205.406)" fill="#7b6e66"/>
      <path id="Path_3949" data-name="Path 3949" d="M665.035,235.016c3.106,0,3.6-3.66,3.6-6.2s-.495-6.2-3.6-6.2-3.572,3.662-3.572,6.2.471,6.2,3.572,6.2m-6.046-6.2c0-4.2,1.281-7.992,6.046-7.992s6.074,3.792,6.074,7.992c0,4.177-1.307,7.991-6.074,7.991s-6.046-3.814-6.046-7.991" transform="translate(-562.577 -205.406)" fill="#7b6e66"/>
    </g>
    <path id="Path_3950" data-name="Path 3950" d="M678.044,261.565l0,.005c-.017.408-.029.637-.042.81a17.145,17.145,0,0,0-1.771.2,5.881,5.881,0,0,1-2.648-3.477,21.292,21.292,0,0,0-3.58-.3,18.141,18.141,0,0,0-12.594,4.627c-.044-.634-.042-1.422-.042-1.422a8.123,8.123,0,0,1,.42-2.616,4.179,4.179,0,0,1,2.186-2.684,7.7,7.7,0,0,0,3.4-3.252c.629-.934,1-1.586,1.486-1.769a28.469,28.469,0,0,0,4.766,1.852,9.224,9.224,0,0,1,1.545-.083c4.373.7,6.511-.419,6.606.386.039.386.088.879.136,1.927,0,0,.039,1.676,0,2.049s.083,1.591.132,2.343a9.7,9.7,0,0,1,0,1.408m-24.121,2.674a1.955,1.955,0,0,1-1.677,1.354,1.427,1.427,0,0,1-.363-.025,2.272,2.272,0,0,1,.008-.312c.041-.152.832-.38.795-1.283-.022-.525-.136-1.869-.151-3.682,1.249,1.117,2.015,2.3,1.388,3.948m-2.636-5.836c-.037-.025-.075-.053-.11-.081-.508-.385-1.039-.781-1.5-1.178-2.062-1.766-1.123-3.329-1.112-3.341l.022-.034a2.226,2.226,0,0,1,2.2-.822c.049.008.1.027.147.041a7.9,7.9,0,0,1,.158.844,34.29,34.29,0,0,1,.193,4.571m-.3,4.514a7.7,7.7,0,0,0-.122,1.211,11.283,11.283,0,0,0-3.025-4.372c.046-1,.107-2.2.181-3.579a5.245,5.245,0,0,0,1.317,1.586c.486.415,1.027.823,1.547,1.215.129.095.256.191.38.286a30.917,30.917,0,0,1-.278,3.651m-3.809-58.987c-.458.419-1.4-.878-1.632-1.215a21.6,21.6,0,0,1-2.475-5.912,1.049,1.049,0,0,0,.707.276,1.026,1.026,0,0,0,.713-.29,14.7,14.7,0,0,0,1.489,1.4,1.307,1.307,0,0,0-.144.588,1.341,1.341,0,0,0,1.342,1.34l.005,0c0,.02-.005.039-.005.059a.834.834,0,0,0,.579.788c-.1,1.311-.059,2.5-.579,2.97m-4.863-23.156a2.293,2.293,0,0,0-1.722-1.411c-.657-2.116-1.223-4.1-1.7-5.88-.044-.708-.114-1.767-.207-2.925.158-.305.293-.61.464-.91l.044.047c-.073.273-.147.556-.2.834a2.886,2.886,0,0,0-.042.422.668.668,0,0,0,.119.43,8.468,8.468,0,0,0,.542-1.183.2.2,0,0,1,.056.066c-.046.31-.083.624-.136.937a3.889,3.889,0,0,0-.039.469.735.735,0,0,0,.134.481,5.105,5.105,0,0,0,.481-1.332c.02.034.063.063.081.1a.474.474,0,0,1,.005.141c0,.139,0,.283,0,.415,0,.186,0,.374-.008.552a5.535,5.535,0,0,0,0,.556.94.94,0,0,0,.191.566,1.028,1.028,0,0,0,.073-.19,5.222,5.222,0,0,0,.222-1.391.528.528,0,0,1,.078.1.665.665,0,0,1,.025.161c.046.373.064.754.086,1.12.015.21.015.424.042.637a1.243,1.243,0,0,0,.242.651,2.683,2.683,0,0,0,.09-.459,8.3,8.3,0,0,0,.041-1.379.994.994,0,0,1,.163.442c.078.368.141.739.2,1.1.037.244.075.49.134.734a1.823,1.823,0,0,0,.315.744.589.589,0,0,0,.005-.134c0-.308-.008-.627-.03-.94a6.331,6.331,0,0,1,.342,1.511,1.549,1.549,0,0,0,.144-.563,3.874,3.874,0,0,0-.334-1.735,10.589,10.589,0,0,1,.935,1.8,1.225,1.225,0,0,0-.059-.715,8.265,8.265,0,0,0-1.085-2.027,2.2,2.2,0,0,1-.13-.185,1.074,1.074,0,0,1-.03-.136,13.05,13.05,0,0,1,1.464,1.932c.01,0,0-.02,0-.032a1.717,1.717,0,0,0-.2-.617,8.957,8.957,0,0,0-1.423-1.937.432.432,0,0,1-.114-.181,11.99,11.99,0,0,1,1.571,1.645,1.864,1.864,0,0,0-.278-.613,8.115,8.115,0,0,0-1.437-1.567.518.518,0,0,1-.185-.225,11.827,11.827,0,0,1,1.6,1.284,3.018,3.018,0,0,0-.868-1.078,9.064,9.064,0,0,0-.976-.73c-.047-.03-.085-.049-.1-.108a11.509,11.509,0,0,1,1.591,1.02,1.625,1.625,0,0,0-.415-.527,5.887,5.887,0,0,0-1-.722c-.12-.073-.247-.147-.378-.219-.066-.034-.12-.046-.159-.114a12.2,12.2,0,0,1,1.362.7,2.2,2.2,0,0,0,.193.112,1.915,1.915,0,0,0-.447-.469,4.131,4.131,0,0,0-.485-.322,9.712,9.712,0,0,0-.973-.491.3.3,0,0,0-.041-.054,13.309,13.309,0,0,1,1.477.608,1.537,1.537,0,0,0-.446-.391,5.28,5.28,0,0,0-.928-.464c-.11-.047-.231-.1-.354-.142-.063-.024-.115-.022-.17-.1.215.051.442.115.661.185.11.037.224.061.33.1s.219.071.327.1a1.766,1.766,0,0,0-.417-.3,7.045,7.045,0,0,0-1.274-.464c-.015-.019-.03-.024-.046-.044.2.032.417.073.625.12.18.041.361.076.547.119.017,0,.037.008.058.012,0,0,.012.007.009,0a2.954,2.954,0,0,0-1.213-.5c-.095-.025-.2-.049-.308-.073a.2.2,0,0,1-.141-.061c.368.034.769.092,1.139.13-.046-.03-.091-.058-.136-.085a3.068,3.068,0,0,1-.09-.5,1.231,1.231,0,0,1,.058-.624c.015.008.015.029.02.042a4.314,4.314,0,0,0,.293.751,1.659,1.659,0,0,0,.224.366.687.687,0,0,0,.375.269,2.173,2.173,0,0,1-.217-1.254c.013.008.015.032.022.049a5.924,5.924,0,0,0,.381.788,3.3,3.3,0,0,0,.271.38.832.832,0,0,0,.43.283c.01-.01-.005-.025-.007-.034a3.422,3.422,0,0,1-.252-.561,1.238,1.238,0,0,1-.091-.7.5.5,0,0,1,.058.107,6.99,6.99,0,0,0,.425.759,2.524,2.524,0,0,0,.315.393.894.894,0,0,0,.464.295c.01-.007,0-.024-.01-.036a2.9,2.9,0,0,1-.515-1.3c.015-.005.019.014.02.019a5.854,5.854,0,0,0,.937,1.274,1.023,1.023,0,0,0,.52.307c0-.008-.012-.025-.019-.037-.064-.088-.137-.183-.2-.278a4.7,4.7,0,0,1-.5-1.054c.066.073.127.158.188.239a8.456,8.456,0,0,0,.6.71,4.923,4.923,0,0,0,.457.442,1.277,1.277,0,0,0,.617.33c0-.019-.022-.032-.034-.042-.186-.217-.376-.442-.549-.671a3.911,3.911,0,0,1-.495-.769c.154.166.307.322.456.486s.312.317.471.474a5.608,5.608,0,0,0,.515.451,2.323,2.323,0,0,0,.291.2.816.816,0,0,0,.376.137,18.22,18.22,0,0,1-1.349-1.515.428.428,0,0,1,.142.1c.122.115.254.225.38.339a11.556,11.556,0,0,0,1.064.869,3.61,3.61,0,0,0,.3.195.756.756,0,0,0,.371.117c-.456-.413-.91-.825-1.33-1.261.317.185.627.381.934.579a6.85,6.85,0,0,1,.857.629,2.61,2.61,0,0,0-.683-.82,5.013,5.013,0,0,0-.993-.644,6.6,6.6,0,0,1,1.8.857,1.019,1.019,0,0,0-.4-.49,5.042,5.042,0,0,0-1.283-.673c-.181-.069-.364-.134-.554-.19a.54.54,0,0,1-.176-.066,7.879,7.879,0,0,1,2.02.568c.007-.012-.007-.022-.01-.031a1.127,1.127,0,0,0-.474-.381,4.793,4.793,0,0,0-1.052-.385,9.487,9.487,0,0,0-1.091-.215,5.187,5.187,0,0,1,1.464.132c.161.036.33.071.474.108,0-.014-.012-.017-.017-.024a1.278,1.278,0,0,0-.529-.3,6.89,6.89,0,0,0-2.069-.315,4.98,4.98,0,0,1,1.679-.047,1.463,1.463,0,0,0-.573-.224,6.332,6.332,0,0,0-1.8-.053,3.7,3.7,0,0,1,1.547-.186,1.538,1.538,0,0,0-.6-.164,5.628,5.628,0,0,0-1.652.095.858.858,0,0,1,.307-.146,3.76,3.76,0,0,1,1.1-.154,1.566,1.566,0,0,0-.6-.114,5.442,5.442,0,0,0-1.557.193,2.9,2.9,0,0,1,1.3-.381,1.574,1.574,0,0,0-.571-.063,3.516,3.516,0,0,0-.525.054c-.039-.049-.08-.1-.119-.147.112-.032.224-.058.341-.08a1.2,1.2,0,0,0,.688.171c0-.012-.02-.031-.036-.047-.239-.215-.486-.446-.707-.686.081-.029.1.008.159.044a5.766,5.766,0,0,0,.6.371,1.5,1.5,0,0,0,.849.212c.005-.02-.027-.031-.047-.044-.278-.232-.584-.456-.862-.7a.163.163,0,0,1,.161.044,7.612,7.612,0,0,0,.681.371,1.693,1.693,0,0,0,.932.217c-.337-.266-.7-.495-1.052-.752.086-.034.132.007.2.037.257.124.524.246.783.352a2,2,0,0,0,1.04.205c0-.014-.019-.02-.024-.027-.385-.251-.819-.464-1.206-.707.041,0,.075-.019.119-.019a.6.6,0,0,1,.142.042c.315.107.64.214.962.31a5.5,5.5,0,0,0,.576.142,1.669,1.669,0,0,0,.656,0c-.02-.025-.056-.031-.09-.046-.468-.207-.973-.407-1.459-.6a.423.423,0,0,1,.283.012c.366.088.742.181,1.108.259.215.044.434.088.662.112a2.223,2.223,0,0,0,.563.007c-.046,4.4-.017,9.175.137,14.138a.919.919,0,0,0-.137-.014,1.016,1.016,0,0,0-1,.844,1.954,1.954,0,0,0-1.151-.383,1.988,1.988,0,0,0-1.85,1.272,1.744,1.744,0,0,1-.358.322.872.872,0,0,1-.8.108m-4.2,12.908a.56.56,0,0,0,.5-.554.5.5,0,0,0-.007-.088.815.815,0,0,0,1.122-.446,1.515,1.515,0,0,0,.5-.134,1.4,1.4,0,0,0,.142.295.53.53,0,0,0-.256.446.536.536,0,0,0,.2.415.842.842,0,0,0,.161,1.667.82.82,0,0,0,.183-.024,23.582,23.582,0,0,0,1.452,5.185,12.829,12.829,0,0,1-3.994-6.762m.466-24.384c.039-.054.069-.11.114-.164a.4.4,0,0,1,.049.054c-.049.132-.095.266-.137.4l-.025-.29m-.119-2.365c.091-.012.183-.027.273-.044.008.029.014.056.02.086a1.6,1.6,0,0,0,.047.158c-.117-.02-.237-.031-.352-.042,0-.053.007-.1.012-.158m-.178-5.259c-.018.042-.034.085-.049.127-.059.008-.115.015-.171.02.025-.117.051-.23.088-.346a2.6,2.6,0,0,0,.295-.125,3.224,3.224,0,0,0-.163.324m-.388.158a1.648,1.648,0,0,1-.693-.12.1.1,0,0,1,.056-.014,5.857,5.857,0,0,0,.813-.195,1.549,1.549,0,0,0-.136.234c-.015.03-.027.063-.041.095m.752,4.514c.013.024.007.054.012.081a2.885,2.885,0,0,0,.064.419,1.336,1.336,0,0,0-.242-.061,1.182,1.182,0,0,1,.166-.439m.458.849a1.524,1.524,0,0,1,.122-.732,3.066,3.066,0,0,0,.376,1.076c.02.031.042.061.066.09a3.23,3.23,0,0,0-.4-.115c-.046-.01-.093-.02-.141-.032-.007-.046-.01-.093-.015-.142h.337a1.09,1.09,0,0,0-.346-.142Zm.5-3.982c.071.034.139.063.21.095-.066.076-.127.154-.185.236-.042-.034-.083-.073-.127-.112.036-.076.068-.147.1-.219m.6.225c-.03.041-.064.081-.093.122a.705.705,0,0,0-.061.083c-.034.047-.044.09-.12.093a3.3,3.3,0,0,1,.164-.327.965.965,0,0,0,.11.029m.188-.566a1.143,1.143,0,0,0-.247.132,1.708,1.708,0,0,1-.337-.383c.193.09.385.178.584.251m.3.095a2.042,2.042,0,0,0-.266.227c-.046-.027-.091-.054-.139-.086.054-.075.108-.146.164-.215.081.027.161.051.241.075m1.144-.341c-.083.032-.157.069-.232.107a1.954,1.954,0,0,0-.219.13c-.073-.027-.141-.054-.21-.086.036-.036.069-.069.107-.1a1.852,1.852,0,0,0-.18.064l-.061-.03a1.391,1.391,0,0,1-.552-.476,4.959,4.959,0,0,0,1.347.395m-1.032,2.921a.029.029,0,0,0,.017,0l-.007-.007a2.176,2.176,0,0,1,.357-.175.918.918,0,0,0,.293.073,7.571,7.571,0,0,0-.813.22,1.434,1.434,0,0,1,.153-.114m-.107-2.218c.076-.105.159-.205.244-.307a1.735,1.735,0,0,0,.188.027,4.062,4.062,0,0,0-.34.319l-.092-.039m.092,1.774a1.386,1.386,0,0,0,.163.136c-.041.008-.081.02-.12.03a1.567,1.567,0,0,0-.153.041c-.022-.044-.049-.092-.071-.136.059-.025.119-.049.181-.071m.427-.32a4.238,4.238,0,0,0,.515.374l.063.036a1.636,1.636,0,0,0-.422-.022c-.108-.139-.217-.281-.313-.432.024,0,.059-.017.085-.014s.049.039.073.058m5.2-.856c.349.044.7.1,1.056.137h.008c0,.108,0,.219,0,.327-.537-.175-1.091-.324-1.633-.488a1.5,1.5,0,0,1,.573.024m1.072-.481c0,.019,0,.039,0,.058-.093,0-.183-.007-.279,0,.09-.02.186-.037.281-.054m.007-.539c0,.076,0,.154,0,.232-.356.041-.717.1-1.076.169-.068.014-.137.031-.207.044a.6.6,0,0,1-.354.019,14.946,14.946,0,0,1,1.64-.464m-4.107,28.859a1.288,1.288,0,0,0,.341-.69,1.833,1.833,0,0,0,.4.047,1.784,1.784,0,0,0,.508-.083.978.978,0,0,0,.1.651,1.293,1.293,0,0,0,1.276.671.762.762,0,0,0-.034.213.823.823,0,0,0,.776.82,1.3,1.3,0,0,0-.424.556.843.843,0,0,0-.673.344,1.317,1.317,0,0,0-.685-.219.538.538,0,0,0-.535-.476.6.6,0,0,0-.147.022,1.291,1.291,0,0,0-.3-.29,1.264,1.264,0,0,0,.073-.41,1.331,1.331,0,0,0-.678-1.157m4.327,5.08a1.335,1.335,0,0,0-.471.307,13.175,13.175,0,0,1-1.191-1.044,1.341,1.341,0,0,0,.183-.485.692.692,0,0,0,.1.01.819.819,0,0,0,.439-.141,1.31,1.31,0,0,0,.562.229,1.335,1.335,0,0,0,.349.422c.01.219.019.454.027.7m.851,50.647c.334.59.676,1.217,1.037,1.937v0a19.755,19.755,0,0,1,1.132,2.8,3.1,3.1,0,0,0-2.548,1.106c.105-1.745.23-3.7.38-5.844M642.057,258.2a4.4,4.4,0,0,0-1.918,1.364s-.586.069-1.472.083a27.342,27.342,0,0,1-3.091-.236c-.254-.046-.513-.1-.773-.163.3-4.753.766-7.284.407-9.221a40.683,40.683,0,0,1-.052-4.614,42.4,42.4,0,0,0,.307-4.556,18.577,18.577,0,0,0,2.679.339,25.1,25.1,0,0,0,5.63-.364c-.671,5.774-1.208,11.275-1.717,17.368m-5.969-97.512c-.046.037-.091.071-.137.107-.012-.086-.022-.175-.025-.264l.032-.044a2.366,2.366,0,0,0,.142-.205c-.012.137-.013.273-.012.407m-.737,9.668a.46.46,0,0,1,.007-.073,4.35,4.35,0,0,1,.578.186c.036.129.073.258.11.388a4.474,4.474,0,0,0-.695-.5m.064-.729c.071.005.129.02.195.027.025.064.051.125.08.191-.091-.047-.185-.093-.281-.132,0-.029-.005-.068.007-.086m-1.084-1.552a3.451,3.451,0,0,0-.3-.417,1.338,1.338,0,0,1,.5.266c-.071.049-.141.1-.208.151m.093.707c-.112.114-.222.229-.325.349a.6.6,0,0,0-.008-.146c.053-.042.107-.083.153-.125a2.456,2.456,0,0,1,.2-.151c-.007.024-.014.047-.019.073m-.446-.164c-.012-.024-.025-.053-.036-.078.081-.044.163-.088.242-.134.036.039.073.076.105.115-.085.083-.171.164-.249.251-.02-.051-.041-.1-.063-.154m-.075.744a3.118,3.118,0,0,0-.244.335.829.829,0,0,0,0-.114,3.143,3.143,0,0,0-.368-1.078,1.451,1.451,0,0,1,.542.5v.005a1.133,1.133,0,0,0-.174.322c.083-.069.169-.137.259-.207.029.041.054.081.078.12-.029.037-.063.076-.092.115m-.862-4.837.024-.007a1.342,1.342,0,0,0,.2-.069,1.69,1.69,0,0,1,.09.266.627.627,0,0,1,.014.083c-.019.019-.041.037-.061.054-.091-.11-.176-.222-.268-.327m-.676-.234a1.827,1.827,0,0,0-.208-.164.777.777,0,0,0,.217,0l.115-.019c.069.086.139.173.2.268.013.02.03.042.042.064l-.08.056a.415.415,0,0,0,.142.044,1.021,1.021,0,0,1,.12.264,6.309,6.309,0,0,0-.552-.515m.166,1.915c-.061-.059-.125-.119-.19-.171.032-.114.054-.23.078-.351a1.342,1.342,0,0,1,.124.518l-.012,0m.9-2.491a1.659,1.659,0,0,1-.563.634,1.965,1.965,0,0,0-.313-.256,4.048,4.048,0,0,0,.876-.378m-.53-2.1a1.033,1.033,0,0,0,.178.136,1.763,1.763,0,0,1,.044.361c-.071-.166-.142-.33-.222-.5m1.171,6.686a1.368,1.368,0,0,0-.154.2,3.164,3.164,0,0,0-.2-.371c-.015-.024-.039-.044-.042-.071a1.168,1.168,0,0,1,.4.246m-.242-4.178a.23.23,0,0,0,.032-.025l.025.019a1.468,1.468,0,0,1-.339.51,2.3,2.3,0,0,0-.176-.232,3.6,3.6,0,0,0,.457-.271m-2.035,3.909c0-.058,0-.117-.007-.176.039-.008.08-.014.119-.02.02.047.041.095.059.142-.059.015-.114.034-.171.054m-.9,1.04a1.042,1.042,0,0,0,.188-.237,1.891,1.891,0,0,1,.386-.083v.01l.013-.012a1.371,1.371,0,0,1,.185-.005,6.886,6.886,0,0,0-.773.327m.09-2.9c.073.034.142.071.214.11-.012.056-.017.114-.029.168a2.439,2.439,0,0,0-.291-.073c.037-.068.075-.134.107-.205m-.5,2.9a.374.374,0,0,0,.029-.064,4.243,4.243,0,0,0,.178-.613c.005-.03.005-.073.02-.088s.059-.027.075-.044c.017.181.019.359.019.535a1.758,1.758,0,0,0-.32.275m.669-3.28a.08.08,0,0,1,.025-.041,1.315,1.315,0,0,1,.034.3,1.065,1.065,0,0,0-.164,0c.036-.083.071-.169.1-.252m.259,2.54c.005.047.015.1.024.147-.047.02-.1.039-.142.063s-.075.032-.113.049a1.716,1.716,0,0,0,.044-.208c.061-.019.125-.037.188-.051m-.142-.344c.015-.007.041-.029.059-.029.02.08.039.159.054.239-.047.027-.1.054-.144.085.01-.1.017-.195.031-.295m.488-2.071c.044.044.088.088.132.136a1.915,1.915,0,0,1,0,.241c-.075-.041-.152-.08-.227-.114.034-.086.063-.175.092-.263m-1.325.419a1.17,1.17,0,0,0-.276.049c.113-.183.212-.371.308-.557a1.647,1.647,0,0,1-.032.508m-.1.32a2.171,2.171,0,0,0-.351-.014c.053-.068.1-.136.146-.208.088.019.174.042.263.069-.017.053-.039.105-.058.152m-.174.363a3.606,3.606,0,0,0-.469-.042,1.733,1.733,0,0,0,.136-.137c.127.027.256.056.374.093-.012.029-.025.056-.041.086m-.639-.3a1.563,1.563,0,0,0-.18.058q.074.01.147.015a1.655,1.655,0,0,1-.115.2c-.081.008-.164.019-.249.034s-.166.034-.249.056a5.027,5.027,0,0,0,.815-1.137,1.343,1.343,0,0,1-.139.715.67.67,0,0,1-.031.061m18.2-33.6c-.02-.29-.041-.578-.078-.871a1.775,1.775,0,0,0,.195.3,2.406,2.406,0,0,1-.117.573m-.935,13.682a.545.545,0,0,1,.049-.108c.17.107.324.222.473.337.022.183.051.378.081.573a9.416,9.416,0,0,0-.6-.8m.424-.942-.005-.005,0-.008,0,.008Zm-1.044-9.482a3.183,3.183,0,0,0-.344-.549,6.348,6.348,0,0,0,1.528-.119,2.586,2.586,0,0,1-1.184.668m.1,7.449c-.022.027-.046.063-.068.1-.225.115-.454.236-.676.361a1.242,1.242,0,0,0,.065-.222l.3-.11a2.6,2.6,0,0,1,.378-.127Zm-.234-.595c.034.075.07.152.1.229-.178.078-.347.161-.512.249,0-.088-.008-.178-.017-.264,0-.047-.007-.093-.012-.141.144-.022.292-.047.437-.073m-.837-7.564a1.177,1.177,0,0,0,.327.115c.061.014.125.024.186.032.059.168.117.337.164.512.01.042.022.081.034.124-.053.015-.1.029-.153.041a.687.687,0,0,0,.2.146,1.5,1.5,0,0,1,.039.457,11.867,11.867,0,0,0-.563-1.069,4,4,0,0,0-.232-.358m-.088,8.863a5.6,5.6,0,0,0-.549.383c.022-.056.041-.114.058-.169a5.1,5.1,0,0,0,.005-1.828,2.391,2.391,0,0,1,.571,1.044l-.005,0a1.758,1.758,0,0,0-.442.4c.164-.059.336-.122.5-.18a2.037,2.037,0,0,1,.054.227c-.068.039-.132.078-.2.122m-2.506-3.116a2.837,2.837,0,0,0,.081-.273c.064.012.129.024.195.034.007.083.01.164.012.244-.095,0-.191-.005-.288-.005m-.117-2.728c-.132-.095-.263-.18-.4-.261.088-.081.18-.164.269-.254.09.09.176.183.263.28-.041.083-.086.163-.13.236m.31-1a.143.143,0,0,1,.063-.051,2.071,2.071,0,0,1-.107.469,1.839,1.839,0,0,0-.246-.093c.1-.107.2-.213.29-.325m-2.1,4.843a1.6,1.6,0,0,0,.41-.264,3.134,3.134,0,0,1,.632.075l0,.019a.066.066,0,0,1,.027-.012,1.852,1.852,0,0,1,.285.09,11.454,11.454,0,0,0-1.35.093m-.63-.207c.029-.027.053-.058.08-.086a6.209,6.209,0,0,0,.585-.837c.029-.046.053-.112.081-.125s.105-.01.139-.029c-.073.285-.161.556-.256.825a2.639,2.639,0,0,0-.629.252m-.11-3.6c.093-.044.183-.09.271-.139.185.107.363.217.53.337-.037.036-.075.071-.115.105a5.421,5.421,0,0,0-.686-.3m-.12-.49c-.1-.005-.2-.008-.3-.005.07.032.144.064.212.1-.086.083-.178.164-.271.241-.131-.032-.266-.061-.407-.083a2.757,2.757,0,0,0-.4-.039,8.206,8.206,0,0,0,1.835-1.3,2.123,2.123,0,0,1-.588,1.01c-.022.027-.049.053-.075.08m1.066-.105a4.075,4.075,0,0,1,.363.242,2.312,2.312,0,0,1-.164.2,3.439,3.439,0,0,0-.522-.205c.112-.078.217-.156.324-.239m.834-.747a2.748,2.748,0,0,1-.313.757,2.062,2.062,0,0,0-.442-.075c.264-.213.512-.449.756-.683m.127,4.3c-.014.081-.025.161-.042.239-.081.005-.164.008-.247.017-.063.007-.129.012-.2.022a2.6,2.6,0,0,0,.174-.3c.105,0,.208.01.312.019m.069-.608c-.01.132-.024.263-.039.393-.09.012-.176.031-.271.051.071-.141.137-.286.2-.43.037,0,.081-.024.108-.014m10.117,5.947c.144-.112.293-.22.456-.324a.541.541,0,0,1,.047.108,8.488,8.488,0,0,0-.63.851q.066-.3.127-.635m.752-14.843c.02-.015.048-.032.075-.049a3.944,3.944,0,0,0,.322-.239q-.132.3-.234.615c-.088.029-.175.061-.263.088a4.264,4.264,0,0,1,.1-.415m.5,11.058c.147.025.295.051.441.073a.792.792,0,0,0-.015.141,2.276,2.276,0,0,0-.012.264c-.168-.088-.341-.171-.515-.249a2.5,2.5,0,0,1,.1-.229m.779.949c.173.059.346.122.512.181a1.812,1.812,0,0,0-.444-.4l-.005,0a2.356,2.356,0,0,1,.573-1.045,4.912,4.912,0,0,0,0,1.828c.019.056.036.114.056.169a6.19,6.19,0,0,0-.542-.383c-.069-.044-.134-.083-.2-.122.012-.073.032-.149.051-.229m1.606-9.4a4.041,4.041,0,0,0,.513-.034,4.708,4.708,0,0,0-.417.4c-.051.053-.1.11-.144.164-.088-.015-.18-.036-.269-.056a5.443,5.443,0,0,1,.317-.48m1.891,7.571.024.012,0-.019a3.1,3.1,0,0,1,.63-.075,1.656,1.656,0,0,0,.41.264,11.5,11.5,0,0,0-1.349-.093,1.712,1.712,0,0,1,.286-.09m.208-.688a2.609,2.609,0,0,0,.176.3c-.068-.01-.134-.015-.2-.022-.083-.008-.164-.012-.247-.017-.019-.078-.031-.158-.042-.239.1-.008.207-.015.312-.019m.573-3.6a2.056,2.056,0,0,0-.446.075,2.748,2.748,0,0,1-.312-.757c.244.234.493.469.757.683m.4.3a3.444,3.444,0,0,0-.522.205,2.411,2.411,0,0,1-.166-.2c.12-.088.241-.169.364-.242.1.083.215.161.324.239m1.913.081a2.781,2.781,0,0,0-.4.039c-.137.022-.276.051-.405.083-.095-.076-.185-.158-.274-.241.073-.037.147-.069.215-.1-.1,0-.207,0-.3.005-.027-.027-.051-.053-.076-.08a2.178,2.178,0,0,1-.588-1.01,8.253,8.253,0,0,0,1.837,1.3m-1.982.578-.114-.105c.171-.12.349-.23.529-.337.091.049.183.095.276.139a5.581,5.581,0,0,0-.691.3m.576,3.3a2.5,2.5,0,0,0-.627-.252c-.092-.269-.181-.541-.254-.825.034.019.1.007.142.029.024.014.047.08.078.125a6.718,6.718,0,0,0,.585.837c.027.029.052.059.076.086m-7.638,60.266c.015-.354.027-.7.037-1.034v-.025a.82.82,0,0,0,.61-1.13,1.681,1.681,0,0,0,1.25-1.623,1.622,1.622,0,0,0-.139-.666,1.336,1.336,0,0,0,.588-.788,2.107,2.107,0,0,0,1.452.8,1.672,1.672,0,0,0-.486,2.819.534.534,0,0,0-.208.425.541.541,0,0,0,.539.542.373.373,0,0,0,.059-.014,20.562,20.562,0,0,1-1.8,2.877c-.659.852-1.281,1.25-1.589.923s-.334-1.993-.312-3.111m37.158,34.2c-.025-.047-.135-.12-.249.007a2.089,2.089,0,0,1-.89.368,3.082,3.082,0,0,0-1.952.7,2.058,2.058,0,0,1-.662.508h-.054c-.347-.02-.325-.632-.325-.632l0-.061c.136-1.576.9-10.8.337-14.985a148.364,148.364,0,0,1-1.245,14.818.6.6,0,0,1-.678.418.754.754,0,0,1-.72-.588s-2.248-9.877-5.29-15.038a82.9,82.9,0,0,1,4.429,15.228s.149.752-.354.847v-.007l-.019.008a.579.579,0,0,1-.081.005c-.105-.015-.319-.12-.719-.522a3.083,3.083,0,0,0-1.954-.7,2.1,2.1,0,0,1-.888-.368.149.149,0,0,0-.251-.007c-.024.049-.169.951,1.252,1.91a5.235,5.235,0,0,0,2.15.588,1.059,1.059,0,0,1,.063.625.911.911,0,0,0,.137.695,1.807,1.807,0,0,1,.2.757,2,2,0,0,1-2.355,1.813c-2.626-.358-3.136-.407-6.747.64a13.188,13.188,0,0,1-4.019.52c-.4-.044-.771-.088-1.122-.12a5.316,5.316,0,0,0-2.979-.4c-2.6.285-3.731,1.5-4.107,3.035a7.313,7.313,0,0,0-2.132,3.331,5.187,5.187,0,0,0-.346,2.557,3.544,3.544,0,0,1-.051,1.689,3.646,3.646,0,0,0,1.117-1.981,4.466,4.466,0,0,0-.091-1.647,2.23,2.23,0,0,1,1.35-2.757,11.016,11.016,0,0,0,.242,2.387,8.312,8.312,0,0,1,.156,1.164c0,.066,0,.132,0,.2a4.532,4.532,0,0,1-.93,3.14,2.413,2.413,0,0,1-1.155.722.7.7,0,0,0-.541.683,38.608,38.608,0,0,1-.978,4.888c-.437,1.733-.159,2.332.044,2.535a1.236,1.236,0,0,1,.124.63v.025c-.088.107-.181.21-.264.319a5.685,5.685,0,0,0-1.471.283c.058-.117.12-.227.169-.356.89-2.348-.649-3.941-2.4-5.312.012-1.091.061-2.306.183-3.6.049-.525.1-1,.154-1.44a4.724,4.724,0,0,1,.388.774,3.117,3.117,0,0,0,1.02,1.4c1.791,1.1,2.657.918,2.657.918-.613-.224-1.227-.459-1.725-2.148a2.412,2.412,0,0,0-.527-1.171,2.862,2.862,0,0,0-1.066-.661,3.2,3.2,0,0,1-.527-.285l-.064-.042c.264-1.947.444-2.847.1-3.5-.017-.02-.02-.041-.037-.059a14.486,14.486,0,0,1-1.564-7.227,9.759,9.759,0,0,1,.351-2.149,10.652,10.652,0,0,0,.391-2.575,18.81,18.81,0,0,1,1.315,6.344c.08.956.215,1.661.324,2.3a10,10,0,0,0,.386,2.94,8.931,8.931,0,0,1,.22,2.516c.08,1.479.778,1.552.778,1.552a4.055,4.055,0,0,1,.051-1.915,8.31,8.31,0,0,0,.4-2.46,4.355,4.355,0,0,0-.537-1.977,8.281,8.281,0,0,0-.7-.974,7.05,7.05,0,0,1-.429-1.982,29.935,29.935,0,0,0-2.635-10.605,5.429,5.429,0,0,0-1.1-1.661,4.7,4.7,0,0,0-.458-.361c.034-.369.068-.737.1-1.113.324-3.467.59-9.306.81-12.359,0-.015,0,2.537,0,2.521.42-5.234,2.4-10.814,3.384-12.012.19-.2.374-.4.554-.6l.007-.007h-.005a22.758,22.758,0,0,0,1.976-2.6,14.478,14.478,0,0,0,12.488-8.391H667.33a12.82,12.82,0,0,1-9.583,6.632,24.623,24.623,0,0,0,1.228-2.7,1.618,1.618,0,0,0,1.72-.522.884.884,0,0,0,.21.029l.007,0a1.759,1.759,0,0,0,.341.036,1.712,1.712,0,0,0,1.286-2.847,1.333,1.333,0,0,0,1.117-.832,1.319,1.319,0,0,0,1.747-.564.873.873,0,0,0,1.117-1.22,12.353,12.353,0,0,0,6-3.245h-1.684a11.181,11.181,0,0,1-4.919,2.235.834.834,0,0,0-.459-.717,1.383,1.383,0,0,0,.463.085,1.4,1.4,0,0,0,1.394-1.276,1.222,1.222,0,0,0,.263.027,1.341,1.341,0,0,0,1.208-.769,1,1,0,0,0,1.416-.908.988.988,0,0,0-.251-.656.417.417,0,0,0,.1.027.436.436,0,0,0,.41-.31,1.416,1.416,0,0,0,.478.09,1.393,1.393,0,0,0,1.395-1.391l0-.041a.687.687,0,0,0,.4.127.711.711,0,0,0,.625-.378c2.226-.351,3.929-1.127,4.527-2.084a2.28,2.28,0,0,0,1.608-2,.485.485,0,0,0,.125.025.436.436,0,0,0,.376-.222.9.9,0,0,0,1.262-.664,1.218,1.218,0,0,0,1.845.005c.02,0,.041.008.061.008a.683.683,0,0,0,.681-.685.676.676,0,0,0-.344-.59.693.693,0,0,0,.022-.168.671.671,0,0,0-.669-.671.623.623,0,0,0-.139.015.67.67,0,0,0-.625-.429.677.677,0,0,0-.515.242.457.457,0,1,1,.285-.864.667.667,0,0,0-.6-.664v0a.742.742,0,0,0,.09-.349.751.751,0,1,0-1.5,0c0,.022.005.041.007.064l-.03.012a1.124,1.124,0,0,0-.851.971l-.027,0a1.387,1.387,0,0,0-2.137-1.044.731.731,0,0,0-.341-.086.753.753,0,0,0-.5.195.231.231,0,0,0-.036-.017.891.891,0,0,0,.015-.134.985.985,0,0,0-.986-.981.962.962,0,0,0-.686.3.718.718,0,0,0-.412-.132,2.29,2.29,0,0,0-4.216-.339.737.737,0,0,0-.407-.122.709.709,0,0,0-.149.014,1.343,1.343,0,0,0-2.281.457.252.252,0,0,1-.024.058.664.664,0,0,0-1.069-.163,1.278,1.278,0,0,0-2.52.305,1.243,1.243,0,0,0,.147.586.706.706,0,0,1-.51.268c-1.006,0-1.122.791-1.271,1.112a.79.79,0,0,1-1.115.18c-.273-.176-.144-.476-.024-.664a.978.978,0,0,0-.568-1.777.99.99,0,0,0-.579.188l-.007.005a1.348,1.348,0,0,0-2.618.454,1.122,1.122,0,0,1-1.12,1.455,1.938,1.938,0,0,0-1.516-.735,1.908,1.908,0,0,0-.549.086c-.027,0-.049,0-.075,0a1.019,1.019,0,0,0-1.388-.29,1.354,1.354,0,0,0-1.73-.756,239.578,239.578,0,0,1,.971-27.991c.005-.015.147-.385.327-1,.476-.429.881-.886,1.364-1.313a.98.98,0,0,0,.039.1c-.254.374-.52.764-.737,1.159a3.725,3.725,0,0,0-.283.62,1.037,1.037,0,0,0-.049.717,13.874,13.874,0,0,0,1.442-1.515.5.5,0,0,1,.054.13c-.234.446-.459.9-.7,1.349a4.911,4.911,0,0,0-.3.7,1.175,1.175,0,0,0-.054.8A8.347,8.347,0,0,0,653.772,150a1.187,1.187,0,0,1,.071.188c.008.053-.047.156-.063.215-.069.212-.144.435-.21.635-.1.283-.2.564-.307.832a7.758,7.758,0,0,0-.295.842,1.52,1.52,0,0,0-.007.961,1.457,1.457,0,0,0,.212-.252,8.537,8.537,0,0,0,1.071-1.993,1.3,1.3,0,0,1,.063.19.968.968,0,0,1-.047.259c-.127.59-.3,1.179-.454,1.745-.091.329-.2.652-.268.993a1.928,1.928,0,0,0,.029,1.113,6.213,6.213,0,0,0,.375-.649,12.967,12.967,0,0,0,.779-2.077,1.6,1.6,0,0,1,.019.757c-.071.6-.173,1.2-.276,1.774-.066.388-.144.783-.178,1.186a2.844,2.844,0,0,0,.091,1.293,1.171,1.171,0,0,0,.075-.2c.164-.469.314-.959.446-1.449a9.877,9.877,0,0,1-.271,2.476,2.37,2.37,0,0,0,.512-.778,6.209,6.209,0,0,0,.4-2.811,16.551,16.551,0,0,1,.476,3.223,1.936,1.936,0,0,0,.286-1.113,13.22,13.22,0,0,0-.588-3.643c-.031-.117-.083-.237-.1-.351a1.1,1.1,0,0,1,.025-.22,21.561,21.561,0,0,1,1.213,3.694c.013.007.013-.027.019-.046a2.662,2.662,0,0,0,.01-1.045,14.33,14.33,0,0,0-1.149-3.682.63.63,0,0,1-.076-.332,19.375,19.375,0,0,1,1.525,3.314,2.789,2.789,0,0,0-.105-1.076,13.1,13.1,0,0,0-1.354-3.126.793.793,0,0,1-.169-.441,18.344,18.344,0,0,1,1.764,2.787,4.8,4.8,0,0,0-.757-2.089,13.771,13.771,0,0,0-1.1-1.622.305.305,0,0,1-.095-.217,18.511,18.511,0,0,1,1.882,2.377,2.6,2.6,0,0,0-.354-1.017,9.633,9.633,0,0,0-1.14-1.615c-.144-.173-.3-.352-.461-.53-.08-.086-.158-.132-.18-.256A20.268,20.268,0,0,1,656.822,150a3.133,3.133,0,0,0,.232.269,2.855,2.855,0,0,0-.441-.947,6.71,6.71,0,0,0-.557-.74,16.94,16.94,0,0,0-1.225-1.257.522.522,0,0,0-.037-.1,20.628,20.628,0,0,1,1.93,1.7,2.489,2.489,0,0,0-.469-.827,9.135,9.135,0,0,0-1.168-1.189c-.147-.13-.3-.264-.461-.4-.085-.073-.166-.1-.208-.247.3.191.608.4.9.627.146.11.305.208.452.32s.3.224.442.327a2.626,2.626,0,0,0-.476-.674,11.109,11.109,0,0,0-1.7-1.371c-.007-.036-.027-.053-.037-.091.283.159.59.327.881.51.251.156.512.3.769.461.029.017.052.036.083.054,0,0,.015.017.015,0a4.84,4.84,0,0,0-1.581-1.388c-.136-.085-.288-.181-.43-.268-.078-.047-.146-.068-.186-.168.544.244,1.122.539,1.659.795a2.143,2.143,0,0,0-.159-.2,4.935,4.935,0,0,1,.122-.808,2.082,2.082,0,0,1,.419-.917.16.16,0,0,1,.005.08,7.85,7.85,0,0,0,.053,1.3,2.974,2.974,0,0,0,.153.668,1.117,1.117,0,0,0,.43.608,3.5,3.5,0,0,1,.322-2.023c.02.027.008.061.01.09a9.24,9.24,0,0,0,.17,1.4,3.781,3.781,0,0,0,.214.718,1.324,1.324,0,0,0,.5.656c.02-.014.007-.044.005-.056a5.385,5.385,0,0,1-.086-.986,2.027,2.027,0,0,1,.229-1.111.652.652,0,0,1,.027.191,11.334,11.334,0,0,0,.252,1.374,4.29,4.29,0,0,0,.268.761,1.458,1.458,0,0,0,.559.693c.01-.005,0-.039,0-.061a4.672,4.672,0,0,1-.093-2.25c.02,0,.015.029.017.039a9.608,9.608,0,0,0,.756,2.426,1.659,1.659,0,0,0,.63.735c.012-.008,0-.044-.007-.064-.054-.171-.113-.349-.153-.525a7.292,7.292,0,0,1-.208-1.867,4.572,4.572,0,0,1,.159.464,14.936,14.936,0,0,0,.551,1.4,8.046,8.046,0,0,0,.461.91,2.09,2.09,0,0,0,.763.822c.01-.031-.014-.056-.025-.081-.169-.427-.341-.864-.481-1.306a6.053,6.053,0,0,1-.351-1.423c.142.329.3.647.435.974s.31.644.471.966a8.663,8.663,0,0,0,.541.952,4.621,4.621,0,0,0,.337.461,1.381,1.381,0,0,0,.505.4,27.138,27.138,0,0,1-1.255-3,.6.6,0,0,1,.156.234c.127.236.268.473.4.71a20.162,20.162,0,0,0,1.164,1.877c.11.152.23.305.363.456a1.243,1.243,0,0,0,.5.373c-.473-.868-.951-1.732-1.357-2.613.383.446.751.906,1.108,1.369a11.555,11.555,0,0,1,.976,1.4,4.212,4.212,0,0,0-.6-1.6,7.931,7.931,0,0,0-1.176-1.493,10.535,10.535,0,0,1,2.289,2.238,1.633,1.633,0,0,0-.349-.951,8.324,8.324,0,0,0-1.6-1.694c-.237-.2-.481-.395-.741-.576a1,1,0,0,1-.235-.195,12.376,12.376,0,0,1,2.772,1.921.061.061,0,0,0,0-.054,1.828,1.828,0,0,0-.522-.827,7.681,7.681,0,0,0-1.4-1.132,14.155,14.155,0,0,0-1.542-.9,8.264,8.264,0,0,1,2.155.966c.227.136.464.281.663.41.017-.014-.005-.031-.01-.042a2.014,2.014,0,0,0-.652-.727,11.15,11.15,0,0,0-2.979-1.561,7.9,7.9,0,0,1,2.577.808,2.259,2.259,0,0,0-.754-.639,10.125,10.125,0,0,0-2.706-1.022,5.976,5.976,0,0,1,2.453.524,2.585,2.585,0,0,0-.834-.566,9.127,9.127,0,0,0-2.56-.718,1.391,1.391,0,0,1,.544-.054,5.9,5.9,0,0,1,1.762.339,2.556,2.556,0,0,0-.854-.486,8.778,8.778,0,0,0-2.47-.522,4.638,4.638,0,0,1,2.179.1,2.448,2.448,0,0,0-.828-.393,5.974,5.974,0,0,0-.83-.193c-.034-.093-.068-.188-.1-.283.186.01.373.03.556.054a1.882,1.882,0,0,0,.957.62c.013-.017-.014-.058-.029-.088-.247-.456-.509-.932-.717-1.415.137,0,.154.066.22.151a9.479,9.479,0,0,0,.722.878,2.429,2.429,0,0,0,1.179.769c.017-.029-.029-.064-.047-.095-.3-.5-.654-1-.945-1.506.127.007.159.071.225.152a11.6,11.6,0,0,0,.834.917,2.731,2.731,0,0,0,1.3.815c-.378-.579-.813-1.122-1.206-1.689.148-.005.2.076.28.158.324.32.664.647,1.006.944a3.178,3.178,0,0,0,1.469.854c.01-.02-.017-.041-.024-.053-.446-.583-.993-1.134-1.461-1.7.064.024.125.008.19.031a.94.94,0,0,1,.192.139c.427.33.867.664,1.3.974a9.029,9.029,0,0,0,.8.518,2.592,2.592,0,0,0,.995.342c-.014-.042-.07-.073-.11-.11-.6-.563-1.264-1.127-1.9-1.671a.67.67,0,0,1,.42.168c.508.327,1.035.662,1.55.973a10.662,10.662,0,0,0,.944.517,2.947,2.947,0,0,0,1.15.337c-.791-.613-1.65-1.181-2.47-1.772a2.453,2.453,0,0,1,.859.335c.5.249,1.01.513,1.532.757a11.206,11.206,0,0,0,1.088.461,3.769,3.769,0,0,0,1.223.269c-.486-.281-.991-.551-1.491-.824a17.318,17.318,0,0,1,2.3.847,4.507,4.507,0,0,0-1.411-1.012,11.4,11.4,0,0,0-1.818-.735,23.8,23.8,0,0,1,3.14.618c.017-.027-.041-.068-.066-.091a2.856,2.856,0,0,0-.891-.483,16.46,16.46,0,0,0-3.28-.749c-.112-.015-.227-.027-.339-.041a.977.977,0,0,1-.542-.154,25.184,25.184,0,0,1,3.78.261,3.031,3.031,0,0,0-1.128-.458,14.271,14.271,0,0,0-2.6-.33c-.356-.017-.725-.024-1.078-.03a1.121,1.121,0,0,1-.149,0c-.064-.01-.119-.064-.18-.076a22.214,22.214,0,0,1,3.518-.088,3.313,3.313,0,0,0-1.188-.347,15.149,15.149,0,0,0-3.47-.012,1.521,1.521,0,0,0-.193-.066,17.013,17.013,0,0,1,3.143-.42,3.382,3.382,0,0,0-1.149-.225,8.658,8.658,0,0,0-1.072.015,13.6,13.6,0,0,0-1.737.236c-.132.025-.225.078-.366.007a15.016,15.016,0,0,1,2.862-.607,5.468,5.468,0,0,0-2.2-.051,11.308,11.308,0,0,0-1.481.322c-.1.029-.171.078-.288.034a11.261,11.261,0,0,1,2.618-.715,3.376,3.376,0,0,0-1.039-.093,8.443,8.443,0,0,0-2.587.583.392.392,0,0,0-.108-.029,8.947,8.947,0,0,1,2.325-.825,4.029,4.029,0,0,0-1.786.105,7.487,7.487,0,0,0-1.5.541c-.049-.015-.088-.007-.141-.022a.4.4,0,0,1,.1-.076,6.626,6.626,0,0,1,.793-.437,1,1,0,0,0,.139-.017c0-.02-.019-.027-.031-.034.229-.1.464-.195.708-.278a1.478,1.478,0,0,0,.822.124,2.421,2.421,0,0,0-.229-.171,4.407,4.407,0,0,1-1.43-1.539,1.03,1.03,0,0,1,.176.13,9.129,9.129,0,0,0,2.1,1.261,1.734,1.734,0,0,0,.947.161c0-.019-.036-.03-.059-.044a7.961,7.961,0,0,1-1.9-1.659c.6.352,1.193.712,1.815,1.02a9.607,9.607,0,0,0,.961.429,2.218,2.218,0,0,0,1.11.2c0-.022-.042-.041-.07-.054-.412-.244-.835-.5-1.24-.769a7.573,7.573,0,0,1-1.245-.94,1.41,1.41,0,0,1,.254.124c.581.3,1.181.6,1.782.89.342.163.695.317,1.052.461a4.32,4.32,0,0,0,.559.185,1.256,1.256,0,0,0,.623.051c-.984-.622-2.016-1.164-3-1.8a.5.5,0,0,1,.279.086c.264.115.537.225.8.337.71.3,1.422.613,2.145.9.183.073.371.132.563.188a1.235,1.235,0,0,0,.647.051.849.849,0,0,0-.166-.1c-.173-.091-.344-.2-.525-.293-.234-.12-.469-.251-.707-.373-.476-.244-.947-.5-1.42-.74.31.059.613.144.915.227a18.186,18.186,0,0,1,1.74.62c.268.1.527.217.783.3.01.005.022.022.039.014a4.464,4.464,0,0,0-1.562-1.1,5.4,5.4,0,0,0-1.281-.463c-.164-.036-.337-.056-.5-.095a8.249,8.249,0,0,1,3.124.522,1.2,1.2,0,0,0-.407-.376,3.09,3.09,0,0,0-.5-.241,8.145,8.145,0,0,0-2.989-.464c-.11,0-.22.005-.33.012a.728.728,0,0,1-.32-.01,9.944,9.944,0,0,1,3.4-.124,1.834,1.834,0,0,0-.928-.408,5.938,5.938,0,0,0-1.12-.108,10.449,10.449,0,0,0-2.553.3,8.01,8.01,0,0,1,3.043-.656c0-.015-.024-.022-.034-.027a2.053,2.053,0,0,0-.9-.185,9.1,9.1,0,0,0-3.385.666,4.852,4.852,0,0,1,1.132-.607,7.618,7.618,0,0,1,1.337-.38,4.054,4.054,0,0,0-1.949.186,7.817,7.817,0,0,0-1.759.74,3.152,3.152,0,0,1,.925-.673,5.461,5.461,0,0,1,1.225-.476,4.12,4.12,0,0,0-1.859.364,6.417,6.417,0,0,0-.8.393,6.822,6.822,0,0,0-.707.451.755.755,0,0,1,.142-.21,2.741,2.741,0,0,1,.627-.525,4.709,4.709,0,0,1,1.093-.53,3.807,3.807,0,0,0-1.776.512,7.093,7.093,0,0,0-1.33.93,2.58,2.58,0,0,1,.666-.785,4.044,4.044,0,0,1,.952-.6,2.258,2.258,0,0,0-.878.236,6.169,6.169,0,0,0-1.886,1.423,3.521,3.521,0,0,1,1.32-1.494,2.052,2.052,0,0,0-.779.324,6.349,6.349,0,0,0-1.577,1.506,2.6,2.6,0,0,1,.439-.844c.081-.114.166-.225.258-.334a1.19,1.19,0,0,0,.513-.3c-.007-.02-.037-.015-.054-.017-.051,0-.105,0-.159-.008.024-.02.046-.042.068-.063a.635.635,0,0,0-.168.058,5.635,5.635,0,0,1-.722-.11,2.032,2.032,0,0,1-1.04-.461.62.62,0,0,1,.193.014,11,11,0,0,0,1.4.046,4.316,4.316,0,0,0,.8-.1,1.461,1.461,0,0,0,.8-.4c0-.014-.039-.012-.059-.012a4.69,4.69,0,0,1-2.223-.388c.007-.022.032-.008.044-.008a9.478,9.478,0,0,0,2.535-.22,1.642,1.642,0,0,0,.851-.459c0-.014-.042-.005-.064-.005-.176.014-.366.034-.545.036a7.3,7.3,0,0,1-1.869-.193c.161-.034.325-.044.488-.063a13.68,13.68,0,0,0,1.483-.234,8.6,8.6,0,0,0,.989-.256,2.08,2.08,0,0,0,.968-.569c-.025-.014-.061,0-.086.008-.454.075-.92.147-1.379.19a5.987,5.987,0,0,1-1.466.037c.351-.066.695-.149,1.045-.219s.695-.163,1.044-.249a8.731,8.731,0,0,0,1.047-.327,4.12,4.12,0,0,0,.522-.23,1.4,1.4,0,0,0,.5-.4,27.1,27.1,0,0,1-3.207.583.667.667,0,0,1,.263-.1c.259-.071.518-.158.779-.239a19.1,19.1,0,0,0,2.082-.735,5.351,5.351,0,0,0,.527-.256,1.259,1.259,0,0,0,.468-.407c-.947.276-1.9.554-2.843.766.518-.28,1.047-.539,1.576-.79a11.223,11.223,0,0,1,1.578-.654,4.269,4.269,0,0,0-1.7.246,8.175,8.175,0,0,0-1.711.829,10.614,10.614,0,0,1,2.679-1.754,1.645,1.645,0,0,0-1,.139,8.233,8.233,0,0,0-2,1.2c-.244.19-.49.386-.725.6a.889.889,0,0,1-.237.186,12.433,12.433,0,0,1,2.467-2.3c-.008-.015-.032-.01-.049-.012a1.822,1.822,0,0,0-.922.332,8,8,0,0,0-1.4,1.122,13.4,13.4,0,0,0-1.206,1.318,8,8,0,0,1,1.4-1.9c.178-.193.374-.395.542-.559-.012-.02-.036,0-.046,0a2.025,2.025,0,0,0-.847.481,11.09,11.09,0,0,0-2.164,2.577,7.835,7.835,0,0,1,1.34-2.343,2.232,2.232,0,0,0-.785.6,10.014,10.014,0,0,0-1.577,2.423,5.959,5.959,0,0,1,1.034-2.281,2.549,2.549,0,0,0-.729.69,9.118,9.118,0,0,0-1.25,2.347,1.494,1.494,0,0,1,.061-.544,6.105,6.105,0,0,1,.708-1.644,2.524,2.524,0,0,0-.656.727,8.725,8.725,0,0,0-1.037,2.3,4.665,4.665,0,0,1,.566-2.106,2.148,2.148,0,0,0-.463.559c-.493.208-.993.447-1.489.635.025-.124.1-.146.185-.2a12.183,12.183,0,0,0,1.039-.683,2.726,2.726,0,0,0,1.01-1.159c-.632.281-1.234.629-1.86.927.019-.147.105-.183.2-.251.369-.269.745-.556,1.093-.846a3.169,3.169,0,0,0,1.071-1.32c-.017-.01-.041.01-.056.019-.645.349-1.276.8-1.913,1.178.037-.063.029-.127.061-.186a1.131,1.131,0,0,1,.169-.166c.391-.373.793-.752,1.166-1.134a9.2,9.2,0,0,0,.635-.708,2.588,2.588,0,0,0,.495-.929c-.044.01-.083.056-.127.09-.649.51-1.31,1.074-1.947,1.62a.645.645,0,0,1,.23-.388c.4-.452.818-.918,1.2-1.379a10.507,10.507,0,0,0,.659-.852,2.9,2.9,0,0,0,.513-1.081c-.732.685-1.425,1.444-2.14,2.162a2.429,2.429,0,0,1,.471-.795c.32-.457.663-.92.983-1.395a10.4,10.4,0,0,0,.625-1,3.625,3.625,0,0,0,.458-1.164c-.354.435-.7.89-1.046,1.342a17.888,17.888,0,0,1,1.193-2.135,4.478,4.478,0,0,0-1.218,1.235,11.633,11.633,0,0,0-1.008,1.677,23.747,23.747,0,0,1,1.1-3c-.024-.022-.07.029-.1.051a2.785,2.785,0,0,0-.613.8,16.378,16.378,0,0,0-1.251,3.121c-.034.105-.064.219-.093.327a1.007,1.007,0,0,1-.239.513,24.583,24.583,0,0,1,.849-3.69,3.033,3.033,0,0,0-.629,1.039,14,14,0,0,0-.734,2.521c-.073.347-.137.71-.2,1.061a.815.815,0,0,1-.02.146c-.024.059-.083.107-.107.163a22.384,22.384,0,0,1,.463-3.482,3.282,3.282,0,0,0-.527,1.12,14.921,14.921,0,0,0-.551,3.419,1.443,1.443,0,0,0-.1.178,16.9,16.9,0,0,1,.075-3.163,3.331,3.331,0,0,0-.4,1.1c-.037.178-.07.352-.092.529-.017-.093-.036-.185-.061-.276-.066.457-.144.913-.237,1.352-.019-.439-.017-.89-.007-1.345a2.683,2.683,0,0,0-.1.256c.007-.193.008-.39,0-.586a3.244,3.244,0,0,0-.2-1.15,16.743,16.743,0,0,1-.471,3.13,1.365,1.365,0,0,0-.065-.193,14.826,14.826,0,0,0,.044-3.463,3.224,3.224,0,0,0-.329-1.191,21.886,21.886,0,0,1-.144,3.509c-.012-.059-.063-.117-.073-.178a.841.841,0,0,1,0-.144c0-.359,0-.727-.012-1.084a13.9,13.9,0,0,0-.293-2.606,3,3,0,0,0-.437-1.132,25.276,25.276,0,0,1,.2,3.78,1,1,0,0,1-.147-.546c-.012-.112-.022-.229-.036-.337a16.4,16.4,0,0,0-.7-3.289,2.762,2.762,0,0,0-.469-.9c-.022-.029-.061-.085-.09-.066a23.119,23.119,0,0,1,.568,3.141,11.359,11.359,0,0,0-.7-1.823,4.515,4.515,0,0,0-.989-1.427,17.7,17.7,0,0,1,.808,2.306c-.264-.5-.525-1.012-.8-1.5a3.661,3.661,0,0,0,.247,1.225A11.576,11.576,0,0,0,647,123.6c.237.524.492,1.037.73,1.542a2.485,2.485,0,0,1,.325.866c-.583-.83-1.134-1.7-1.735-2.5a2.905,2.905,0,0,0,.319,1.152c.151.334.329.651.5.952.3.518.63,1.049.947,1.564a.626.626,0,0,1,.161.424c-.53-.647-1.086-1.32-1.64-1.93-.034-.042-.064-.1-.108-.112a2.578,2.578,0,0,0,.329,1,8.314,8.314,0,0,0,.506.8c.3.439.629.883.951,1.318a.924.924,0,0,1,.137.191c.024.064.007.127.027.193-.559-.478-1.1-1.032-1.681-1.488-.012-.01-.029-.036-.051-.025a3.179,3.179,0,0,0,.83,1.483c.293.346.613.69.93,1.02.078.083.159.13.152.278-.564-.4-1.1-.844-1.672-1.228a2.726,2.726,0,0,0,.795,1.315,11.639,11.639,0,0,0,.9.849c.08.066.144.1.151.225-.505-.295-1-.657-1.493-.966-.031-.02-.066-.068-.095-.049a2.224,2.224,0,0,0,.578,1.015c.024.181.037.363.044.542l-.256-.146a6.156,6.156,0,0,0-.281-1.11,2.449,2.449,0,0,0-.43-.812,4.565,4.565,0,0,1,.2,2.172,8.778,8.778,0,0,0-.622-2.445,2.456,2.456,0,0,0-.527-.827,5.918,5.918,0,0,1,.417,1.738,1.542,1.542,0,0,1-.032.546,9.258,9.258,0,0,0-.829-2.525,2.557,2.557,0,0,0-.6-.8,6.007,6.007,0,0,1,.629,2.426,10.249,10.249,0,0,0-1.135-2.66,2.282,2.282,0,0,0-.674-.725,7.836,7.836,0,0,1,.918,2.538,11.181,11.181,0,0,0-1.688-2.909,2.018,2.018,0,0,0-.754-.617c-.012,0-.03-.025-.044-.007.141.191.295.424.439.644a8.166,8.166,0,0,1,1.059,2.111,14.056,14.056,0,0,0-.964-1.5,7.806,7.806,0,0,0-1.193-1.347,1.825,1.825,0,0,0-.849-.486c-.015,0-.037-.008-.051.005a12.312,12.312,0,0,1,2.037,2.686.862.862,0,0,1-.2-.227c-.2-.251-.4-.486-.61-.715a8.193,8.193,0,0,0-1.766-1.527,1.642,1.642,0,0,0-.966-.31,10.629,10.629,0,0,1,2.34,2.186,8.267,8.267,0,0,0-1.544-1.106,4.3,4.3,0,0,0-1.63-.534,11.315,11.315,0,0,1,1.442.912c.476.339.954.688,1.418,1.051-.9-.369-1.784-.808-2.672-1.242a1.253,1.253,0,0,0,.393.481c.159.125.315.241.471.342a19.441,19.441,0,0,0,1.927,1.081c.242.122.486.256.73.368a.669.669,0,0,1,.241.149,27.693,27.693,0,0,1-3.058-1.125,1.345,1.345,0,0,0,.422.485,3.807,3.807,0,0,0,.476.317,8.736,8.736,0,0,0,.976.5c.33.146.656.295.988.424s.659.268.993.395a6.14,6.14,0,0,1-1.439-.288c-.446-.122-.895-.273-1.327-.425-.025-.01-.056-.031-.083-.022a2.054,2.054,0,0,0,.854.725,7.786,7.786,0,0,0,.929.422,13.824,13.824,0,0,0,1.423.486c.156.046.315.085.469.144a7.392,7.392,0,0,1-1.872-.129c-.181-.032-.363-.085-.534-.127-.025-.005-.056-.019-.068-.007a1.685,1.685,0,0,0,.764.6,9.613,9.613,0,0,0,2.459.651c.008,0,.041-.008.041.015a4.672,4.672,0,0,1-2.254,0c-.022-.005-.056-.012-.063,0a1.441,1.441,0,0,0,.717.525,4.056,4.056,0,0,0,.773.237,11.1,11.1,0,0,0,1.39.193.683.683,0,0,1,.191.02,2.031,2.031,0,0,1-1.1.276,5.656,5.656,0,0,1-.993-.046c-.012,0-.044-.014-.056.007a1.326,1.326,0,0,0,.679.473,4.179,4.179,0,0,0,.729.186,9.5,9.5,0,0,0,1.4.105c.031,0,.061-.01.09.008a3.5,3.5,0,0,1-2.011.407,1.143,1.143,0,0,0,.627.4,3.1,3.1,0,0,0,.676.124,7.911,7.911,0,0,0,1.3-.005.112.112,0,0,1,.078,0,2.037,2.037,0,0,1-.9.456,5.3,5.3,0,0,1-.832.163,2.179,2.179,0,0,0-.4-.369c-.01.012.01.024.017.034.061.108.115.214.171.322a3.729,3.729,0,0,1,.42,1.21,7.66,7.66,0,0,0-1.137-1.61,2.1,2.1,0,0,0-.561-.419c-.012.005.013.029.02.036a5.082,5.082,0,0,1,.469.71,2.453,2.453,0,0,1,.341.857,9.2,9.2,0,0,0-.829-1.095,3.833,3.833,0,0,0-.812-.7,1.159,1.159,0,0,0-.366-.166A4.618,4.618,0,0,1,643,135a2.6,2.6,0,0,1,.437.844,6.3,6.3,0,0,0-1.574-1.506,2.071,2.071,0,0,0-.781-.324,3.51,3.51,0,0,1,1.32,1.494,6.228,6.228,0,0,0-1.881-1.423,2.29,2.29,0,0,0-.883-.236,4.079,4.079,0,0,1,.952.6,2.536,2.536,0,0,1,.666.785,6.981,6.981,0,0,0-1.33-.93,3.807,3.807,0,0,0-1.776-.512,4.757,4.757,0,0,1,1.095.53,2.711,2.711,0,0,1,.622.525.74.74,0,0,1,.148.21,6.741,6.741,0,0,0-.712-.451,6.124,6.124,0,0,0-.8-.393,4.128,4.128,0,0,0-1.861-.364,5.506,5.506,0,0,1,1.227.476,3.111,3.111,0,0,1,.922.673,7.8,7.8,0,0,0-1.757-.74,4.043,4.043,0,0,0-1.947-.186,7.587,7.587,0,0,1,1.334.38,4.786,4.786,0,0,1,1.132.607,9.091,9.091,0,0,0-3.385-.666,2.074,2.074,0,0,0-.9.185c-.012.005-.034.012-.032.027a8,8,0,0,1,3.041.656,10.4,10.4,0,0,0-2.552-.3,5.922,5.922,0,0,0-1.118.108,1.833,1.833,0,0,0-.93.408,9.957,9.957,0,0,1,3.4.124.736.736,0,0,1-.322.01c-.107-.007-.219-.012-.329-.012a8.129,8.129,0,0,0-2.989.464,2.882,2.882,0,0,0-.5.241,1.159,1.159,0,0,0-.408.376,8.223,8.223,0,0,1,3.123-.522c-.17.039-.337.059-.5.095a5.389,5.389,0,0,0-1.283.463,4.487,4.487,0,0,0-1.561,1.1c.017.008.03-.008.042-.014.251-.086.515-.2.781-.3a18.258,18.258,0,0,1,1.735-.62c.3-.083.608-.168.918-.227-.473.244-.944.5-1.418.74-.241.122-.473.252-.712.373-.178.092-.349.2-.522.293a.756.756,0,0,0-.166.1,1.253,1.253,0,0,0,.651-.051c.193-.056.378-.115.561-.188.722-.285,1.432-.595,2.143-.9.268-.112.539-.222.8-.337a.511.511,0,0,1,.278-.086c-.976.634-2.01,1.176-2.994,1.8a1.27,1.27,0,0,0,.627-.051,4.416,4.416,0,0,0,.554-.185c.359-.144.712-.3,1.054-.461.6-.285,1.2-.585,1.782-.89a1.45,1.45,0,0,1,.253-.124,7.485,7.485,0,0,1-1.242.94c-.408.264-.83.525-1.242.769-.027.014-.073.032-.066.054a2.2,2.2,0,0,0,1.1-.2,9.252,9.252,0,0,0,.959-.429c.627-.308,1.22-.668,1.818-1.02a7.9,7.9,0,0,1-1.9,1.659c-.022.014-.059.025-.058.044a1.734,1.734,0,0,0,.947-.161,9.058,9.058,0,0,0,2.1-1.261,1.149,1.149,0,0,1,.173-.13,4.374,4.374,0,0,1-1.423,1.539,1.95,1.95,0,0,0-.232.171,1.5,1.5,0,0,0,.827-.124c.239.083.474.175.7.278-.012.007-.032.014-.032.034a.944.944,0,0,0,.139.017,6.75,6.75,0,0,1,.793.437.348.348,0,0,1,.1.076c-.051.015-.091.007-.141.022a7.6,7.6,0,0,0-1.5-.541,4.026,4.026,0,0,0-1.784-.105,9.013,9.013,0,0,1,2.321.825.35.35,0,0,0-.107.029,8.465,8.465,0,0,0-2.586-.583,3.353,3.353,0,0,0-1.039.093,11.361,11.361,0,0,1,2.616.715c-.119.044-.191-.005-.292-.034a11.38,11.38,0,0,0-1.477-.322,5.468,5.468,0,0,0-2.2.051,15.008,15.008,0,0,1,2.859.607c-.139.071-.23.019-.363-.007a13.6,13.6,0,0,0-1.74-.236,8.637,8.637,0,0,0-1.071-.015,3.375,3.375,0,0,0-1.149.225,16.939,16.939,0,0,1,3.141.42,1.715,1.715,0,0,0-.193.066,15.12,15.12,0,0,0-3.467.012,3.293,3.293,0,0,0-1.188.347,22.165,22.165,0,0,1,3.514.088c-.058.012-.117.066-.18.076a1.019,1.019,0,0,1-.142,0c-.358.007-.729.014-1.083.03a14.324,14.324,0,0,0-2.608.33,3.047,3.047,0,0,0-1.127.458,25.2,25.2,0,0,1,3.784-.261.991.991,0,0,1-.544.154c-.112.014-.229.025-.339.041a16.386,16.386,0,0,0-3.279.749,2.855,2.855,0,0,0-.891.483c-.029.024-.083.064-.066.091a23.569,23.569,0,0,1,3.138-.618,11.375,11.375,0,0,0-1.816.735,4.441,4.441,0,0,0-1.41,1.012,17.336,17.336,0,0,1,2.294-.847c-.5.273-1,.542-1.491.824a3.7,3.7,0,0,0,1.222-.269,11.094,11.094,0,0,0,1.091-.461c.519-.244,1.034-.508,1.534-.757a2.406,2.406,0,0,1,.857-.335c-.818.591-1.679,1.159-2.469,1.772a2.949,2.949,0,0,0,1.149-.337,10.456,10.456,0,0,0,.945-.517c.515-.31,1.04-.646,1.549-.973a.678.678,0,0,1,.42-.168c-.639.544-1.3,1.108-1.9,1.671-.042.037-.1.068-.114.11a2.62,2.62,0,0,0,1-.342,9.505,9.505,0,0,0,.8-.518c.436-.31.876-.644,1.3-.974a.882.882,0,0,1,.19-.139c.063-.022.124-.007.191-.031-.468.569-1.015,1.12-1.462,1.7-.008.012-.032.032-.025.053a3.191,3.191,0,0,0,1.473-.854c.342-.3.683-.624,1-.944.081-.081.129-.163.281-.158-.395.568-.832,1.11-1.208,1.689a2.739,2.739,0,0,0,1.3-.815,11.3,11.3,0,0,0,.835-.917c.063-.081.1-.146.224-.152-.29.508-.642,1.008-.947,1.506-.018.03-.063.066-.046.095a2.451,2.451,0,0,0,1.181-.769,9.223,9.223,0,0,0,.72-.878c.063-.085.083-.147.22-.151-.207.483-.469.959-.717,1.415-.017.03-.041.071-.029.088a1.85,1.85,0,0,0,.954-.62c.188-.024.376-.044.561-.054-.034.095-.071.19-.1.283a5.818,5.818,0,0,0-.827.193,2.471,2.471,0,0,0-.834.393,4.659,4.659,0,0,1,2.184-.1,8.775,8.775,0,0,0-2.472.522,2.5,2.5,0,0,0-.851.486,5.866,5.866,0,0,1,1.759-.339,1.406,1.406,0,0,1,.546.054,9.131,9.131,0,0,0-2.563.718,2.635,2.635,0,0,0-.832.566,5.984,5.984,0,0,1,2.455-.524,10.146,10.146,0,0,0-2.709,1.022,2.27,2.27,0,0,0-.752.639,7.885,7.885,0,0,1,2.579-.808,11.15,11.15,0,0,0-2.984,1.561,2.033,2.033,0,0,0-.649.727c-.005.012-.027.029-.009.042.195-.129.437-.274.661-.41a8.252,8.252,0,0,1,2.154-.966,14.858,14.858,0,0,0-1.544.9,7.718,7.718,0,0,0-1.4,1.132,1.828,1.828,0,0,0-.522.827c0,.015-.01.039,0,.054a12.479,12.479,0,0,1,2.775-1.921,1.027,1.027,0,0,1-.234.195c-.263.181-.5.38-.744.576a8.224,8.224,0,0,0-1.6,1.694,1.618,1.618,0,0,0-.347.951,10.434,10.434,0,0,1,2.284-2.238,8.149,8.149,0,0,0-1.176,1.493,4.329,4.329,0,0,0-.6,1.6,11.971,11.971,0,0,1,.978-1.4c.357-.463.727-.923,1.108-1.369-.408.881-.883,1.745-1.354,2.613a1.261,1.261,0,0,0,.5-.373,5.39,5.39,0,0,0,.363-.456,19.133,19.133,0,0,0,1.162-1.877c.134-.237.273-.474.4-.71a.69.69,0,0,1,.156-.234,27.455,27.455,0,0,1-1.252,3,1.363,1.363,0,0,0,.5-.4,4.136,4.136,0,0,0,.337-.461,9,9,0,0,0,.544-.952c.158-.322.32-.639.464-.966s.3-.646.437-.974a6.043,6.043,0,0,1-.349,1.423c-.141.442-.312.879-.483,1.306-.007.025-.032.051-.024.081a2.082,2.082,0,0,0,.764-.822,8.312,8.312,0,0,0,.459-.91,14.051,14.051,0,0,0,.547-1.4c.052-.156.1-.313.161-.464a7.294,7.294,0,0,1-.205,1.867c-.041.176-.1.354-.152.525-.007.02-.022.056-.008.064a1.675,1.675,0,0,0,.632-.735,9.668,9.668,0,0,0,.754-2.426c0-.01-.005-.039.02-.039a4.736,4.736,0,0,1-.1,2.25c0,.022-.017.056,0,.061a1.448,1.448,0,0,0,.559-.693,4.146,4.146,0,0,0,.266-.761,10.427,10.427,0,0,0,.254-1.374.655.655,0,0,1,.029-.191,2.027,2.027,0,0,1,.229,1.111,5.248,5.248,0,0,1-.088.986c0,.012-.013.042.005.056a1.318,1.318,0,0,0,.5-.656,4.341,4.341,0,0,0,.214-.718,9.234,9.234,0,0,0,.166-1.4.163.163,0,0,1,.012-.09,3.5,3.5,0,0,1,.324,2.023,1.1,1.1,0,0,0,.429-.608,2.8,2.8,0,0,0,.153-.668,8.034,8.034,0,0,0,.054-1.3.129.129,0,0,1,0-.08,2.04,2.04,0,0,1,.417.917,4.6,4.6,0,0,1,.124.808,2.166,2.166,0,0,0-.161.2c.537-.256,1.117-.551,1.659-.795-.041.1-.107.12-.181.168-.146.086-.3.183-.429.268a4.8,4.8,0,0,0-1.584,1.388c-.005.02.015,0,.012,0,.034-.019.056-.037.083-.054.257-.159.518-.3.774-.461.291-.183.593-.351.879-.51-.01.039-.032.056-.041.091a11.187,11.187,0,0,0-1.7,1.371,2.66,2.66,0,0,0-.473.674c.144-.1.293-.212.44-.327s.3-.21.451-.32c.3-.224.608-.435.908-.627-.042.149-.125.175-.21.247-.157.132-.315.266-.459.4a9.149,9.149,0,0,0-1.171,1.189,2.483,2.483,0,0,0-.466.827,20.412,20.412,0,0,1,1.928-1.7.63.63,0,0,0-.036.1,16.283,16.283,0,0,0-1.225,1.257,6.5,6.5,0,0,0-.563.74,2.99,2.99,0,0,0-.437.947,2.908,2.908,0,0,0,.236-.269,19.994,19.994,0,0,1,1.7-1.774c-.022.124-.1.169-.18.256-.163.178-.319.358-.463.53a9.714,9.714,0,0,0-1.137,1.615,2.572,2.572,0,0,0-.354,1.017,18.5,18.5,0,0,1,1.881-2.377.3.3,0,0,1-.1.217,14.669,14.669,0,0,0-1.1,1.622,4.822,4.822,0,0,0-.756,2.089,18.221,18.221,0,0,1,1.766-2.787.846.846,0,0,1-.169.441,13.112,13.112,0,0,0-1.357,3.126,2.964,2.964,0,0,0-.1,1.076,19.125,19.125,0,0,1,1.523-3.314.586.586,0,0,1-.076.332,14.381,14.381,0,0,0-1.146,3.682,2.664,2.664,0,0,0,.009,1.045c.005.019.005.053.02.046a21.415,21.415,0,0,1,1.212-3.694.9.9,0,0,1,.025.22,3.228,3.228,0,0,1-.1.351,13.093,13.093,0,0,0-.588,3.643,1.936,1.936,0,0,0,.286,1.113,16.185,16.185,0,0,1,.478-3.223,6.184,6.184,0,0,0,.4,2.811,2.308,2.308,0,0,0,.51.778,9.8,9.8,0,0,1-.269-2.476c.13.49.281.979.447,1.449a.857.857,0,0,0,.073.2,2.912,2.912,0,0,0,.09-1.293c-.037-.4-.108-.8-.181-1.186-.1-.578-.2-1.174-.271-1.774a1.6,1.6,0,0,1,.015-.757,12.668,12.668,0,0,0,.785,2.077,5.416,5.416,0,0,0,.374.649,1.955,1.955,0,0,0,.025-1.113c-.068-.341-.175-.664-.269-.993-.153-.566-.324-1.156-.452-1.745a.905.905,0,0,1-.046-.259,1,1,0,0,1,.063-.19,8.412,8.412,0,0,0,1.071,1.993,1.315,1.315,0,0,0,.212.252,1.557,1.557,0,0,0-.007-.961,7.764,7.764,0,0,0-.3-.842c-.1-.268-.2-.549-.3-.832-.071-.2-.141-.424-.212-.635a.7.7,0,0,1-.064-.215c.012-.064.058-.129.071-.188a8.457,8.457,0,0,0,1.428,1.771,1.165,1.165,0,0,0-.054-.8,5.106,5.106,0,0,0-.3-.7c-.239-.447-.466-.9-.695-1.349a.337.337,0,0,1,.053-.13,14.172,14.172,0,0,0,1.44,1.515,1.089,1.089,0,0,0-.047-.717,3.728,3.728,0,0,0-.285-.62c-.22-.395-.481-.785-.737-1.159.013-.032.025-.064.041-.1.432.383.808.79,1.22,1.178.066.3.141.612.225.939l.049.188c-.171,3.509-.33,7.84-.4,12.7-.039,0-.076,0-.117.005a8.814,8.814,0,0,0-1.6.332c-.208.063-.432.132-.642.2a.666.666,0,0,1-.085.031c-.037.007-.083-.014-.12-.008a13.443,13.443,0,0,1,2.05-.762,2,2,0,0,0-.769.037,9.268,9.268,0,0,0-2.043.693.729.729,0,0,0-.122,0,10.193,10.193,0,0,1,1.757-.881,2.017,2.017,0,0,0-.718.1,4.991,4.991,0,0,0-.629.225,8.433,8.433,0,0,0-.974.488c-.073.042-.119.093-.215.08a9.23,9.23,0,0,1,1.561-.937,3.381,3.381,0,0,0-1.306.419,6.636,6.636,0,0,0-.807.488c-.054.037-.085.081-.163.076a7.056,7.056,0,0,1,1.394-.951,2.086,2.086,0,0,0-.632.158,5.363,5.363,0,0,0-1.4.864.582.582,0,0,0-.071.005,5.65,5.65,0,0,1,1.2-.956,2.554,2.554,0,0,0-1.03.424,4.961,4.961,0,0,0-.773.622c-.034,0-.054.014-.088.015a.525.525,0,0,1,.044-.064,4.115,4.115,0,0,1,.376-.417c.025-.012.054-.024.081-.037-.005-.014-.017-.014-.027-.015.114-.107.236-.208.361-.3a.937.937,0,0,0,.51-.1c-.056-.022-.117-.036-.173-.054a2.711,2.711,0,0,1-1.15-.615.585.585,0,0,1,.13.042,5.656,5.656,0,0,0,1.49.319,1.1,1.1,0,0,0,.59-.1c0-.012-.024-.01-.039-.015a4.968,4.968,0,0,1-1.457-.591c.423.085.849.178,1.274.232a5.98,5.98,0,0,0,.654.058,1.335,1.335,0,0,0,.691-.107c0-.014-.031-.014-.049-.017-.292-.061-.595-.13-.885-.205a4.469,4.469,0,0,1-.925-.3.856.856,0,0,1,.173.019c.4.064.818.119,1.23.164.234.027.474.044.717.058a2.883,2.883,0,0,0,.362-.005.756.756,0,0,0,.378-.1c-.7-.166-1.423-.274-2.125-.452a.339.339,0,0,1,.18-.005c.178.015.363.024.544.037.476.034.959.073,1.444.095.124,0,.246,0,.369,0a.772.772,0,0,0,.391-.1.63.63,0,0,0-.122-.027c-.12-.019-.241-.051-.364-.066-.168-.022-.329-.053-.493-.076l-.984-.149c.195-.029.388-.041.586-.053a11.329,11.329,0,0,1,1.15.015c.173.007.349.019.515.019.01,0,.022.008.027,0a2.747,2.747,0,0,0-1.14-.329,3.352,3.352,0,0,0-.846-.014c-.107.014-.214.036-.319.046a5.132,5.132,0,0,1,1.947-.325.724.724,0,0,0-.32-.137,1.785,1.785,0,0,0-.342-.042,5.031,5.031,0,0,0-1.852.334c-.066.02-.129.047-.193.071a.4.4,0,0,1-.191.059,6.221,6.221,0,0,1,1.977-.759,1.133,1.133,0,0,0-.627-.054,4,4,0,0,0-.685.163,6.623,6.623,0,0,0-1.44.693,5.048,5.048,0,0,1,1.659-1c-.005-.01-.019-.01-.025-.01a1.292,1.292,0,0,0-.569.075,5.755,5.755,0,0,0-1.859,1.076,3.1,3.1,0,0,1,.546-.585,4.472,4.472,0,0,1,.71-.493,2.5,2.5,0,0,0-1.112.5,4.858,4.858,0,0,0-.884.793,1.913,1.913,0,0,1,.41-.585,3.5,3.5,0,0,1,.622-.527,2.571,2.571,0,0,0-1.02.59,4.008,4.008,0,0,0-.388.391,4.311,4.311,0,0,0-.329.412.436.436,0,0,1,.042-.152,1.681,1.681,0,0,1,.263-.435,2.855,2.855,0,0,1,.536-.535,2.443,2.443,0,0,0-.944.661,4.554,4.554,0,0,0-.595.818,1.611,1.611,0,0,1,.234-.6,2.581,2.581,0,0,1,.439-.551,1.418,1.418,0,0,0-.468.317,3.85,3.85,0,0,0-.823,1.222,2.206,2.206,0,0,1,.474-1.15,1.353,1.353,0,0,0-.395.349,3.84,3.84,0,0,0-.618,1.208,1.484,1.484,0,0,1,.085-.586c.024-.083.054-.166.083-.249a.742.742,0,0,0,.244-.278c-.01-.012-.029,0-.037,0-.031.01-.063.019-.1.027.012-.017.017-.034.027-.049a.416.416,0,0,0-.086.066,3.8,3.8,0,0,1-.447.083,1.291,1.291,0,0,1-.707-.061.478.478,0,0,1,.117-.032,6.657,6.657,0,0,0,.832-.256,2.281,2.281,0,0,0,.452-.222.888.888,0,0,0,.388-.393c0-.007-.024,0-.034.005a2.889,2.889,0,0,1-1.388.222c0-.015.017-.012.022-.012a6.085,6.085,0,0,0,1.447-.644,1.049,1.049,0,0,0,.41-.444c-.007-.005-.027.005-.039.01-.1.046-.207.095-.315.132a4.456,4.456,0,0,1-1.139.263,2.914,2.914,0,0,1,.274-.132c.278-.132.559-.276.828-.439a5.794,5.794,0,0,0,.527-.351,1.264,1.264,0,0,0,.452-.534c-.017,0-.032.017-.049.024-.251.136-.512.274-.773.393a3.7,3.7,0,0,1-.854.317c.19-.112.38-.227.569-.339s.376-.236.568-.359a5.613,5.613,0,0,0,.551-.4,2.426,2.426,0,0,0,.256-.242.812.812,0,0,0,.214-.339,18.072,18.072,0,0,1-1.766.993.335.335,0,0,1,.131-.117c.141-.093.273-.2.412-.3a11.876,11.876,0,0,0,1.079-.856c.086-.08.171-.164.254-.258a.741.741,0,0,0,.193-.334c-.5.354-1,.712-1.518,1.027.249-.269.508-.529.769-.783a6.672,6.672,0,0,1,.795-.7,2.681,2.681,0,0,0-.949.488,5.469,5.469,0,0,0-.839.832,6.711,6.711,0,0,1,1.222-1.572,1.009,1.009,0,0,0-.561.285,5.042,5.042,0,0,0-.935,1.112c-.107.163-.214.327-.305.5a.546.546,0,0,1-.1.159,7.563,7.563,0,0,1,.983-1.852c-.01-.007-.024,0-.031,0a1.118,1.118,0,0,0-.474.383,4.71,4.71,0,0,0-.6.945,8.5,8.5,0,0,0-.444,1.018,5.065,5.065,0,0,1,.442-1.4c.068-.151.141-.307.2-.439-.009-.01-.015,0-.025.008a1.261,1.261,0,0,0-.4.454,6.917,6.917,0,0,0-.752,1.955,4.924,4.924,0,0,1,.315-1.652,1.416,1.416,0,0,0-.344.513,6.412,6.412,0,0,0-.434,1.747,3.721,3.721,0,0,1,.146-1.554,1.523,1.523,0,0,0-.288.554,5.619,5.619,0,0,0-.259,1.635,1.017,1.017,0,0,1-.074-.334,3.639,3.639,0,0,1,.083-1.11,1.508,1.508,0,0,0-.239.559,5.364,5.364,0,0,0-.144,1.564,2.847,2.847,0,0,1-.095-1.354,1.312,1.312,0,0,0-.159.424c-.247.222-.495.463-.747.678-.012-.081.029-.108.068-.158a6.565,6.565,0,0,0,.473-.61,1.675,1.675,0,0,0,.361-.888c-.317.3-.6.622-.9.922-.022-.088.025-.127.064-.186.159-.234.324-.478.469-.718a1.955,1.955,0,0,0,.364-.995c-.015,0-.022.017-.029.024-.308.335-.588.729-.886,1.079.007-.044-.008-.08,0-.12a1.15,1.15,0,0,1,.064-.132c.156-.3.313-.6.457-.9a4.953,4.953,0,0,0,.231-.546,1.641,1.641,0,0,0,.1-.647c-.025.014-.037.051-.058.08-.278.43-.556.9-.818,1.347a.4.4,0,0,1,.056-.274c.146-.347.295-.707.429-1.056a6.536,6.536,0,0,0,.217-.635,1.861,1.861,0,0,0,.081-.739c-.293.549-.547,1.139-.818,1.706a1.445,1.445,0,0,1,.113-.564c.093-.335.2-.676.3-1.02a7.245,7.245,0,0,0,.163-.717,2.246,2.246,0,0,0,.031-.778c-.119.327-.229.666-.342,1a11.19,11.19,0,0,1,.269-1.5,2.809,2.809,0,0,0-.468.973,7.19,7.19,0,0,0-.252,1.191,14.975,14.975,0,0,1,.037-1.988c-.017-.007-.036.032-.046.051a1.738,1.738,0,0,0-.2.6,10.206,10.206,0,0,0-.105,2.089c.005.069.008.142.012.21a.635.635,0,0,1-.034.351,15.8,15.8,0,0,1-.252-2.343,1.923,1.923,0,0,0-.158.739,8.8,8.8,0,0,0,.08,1.633c.029.219.064.446.1.664a.64.64,0,0,1,.013.092c0,.036-.024.078-.025.115a13.608,13.608,0,0,1-.437-2.142,2.06,2.06,0,0,0-.081.766,9.346,9.346,0,0,0,.368,2.123,1.24,1.24,0,0,0-.022.125,10.631,10.631,0,0,1-.6-1.877,2.022,2.022,0,0,0-.012.727,2.955,2.955,0,0,0,.053.327c-.029-.049-.059-.1-.091-.151.051.286.1.568.13.849-.1-.258-.19-.522-.271-.793a1.472,1.472,0,0,0-.01.171c-.037-.115-.073-.23-.119-.346a2,2,0,0,0-.356-.635,10.459,10.459,0,0,1,.361,1.937c-.027-.036-.054-.069-.08-.1a9.116,9.116,0,0,0-.678-2.045,2.046,2.046,0,0,0-.435-.639,13.88,13.88,0,0,1,.629,2.1c-.017-.034-.059-.058-.078-.091a.639.639,0,0,1-.031-.086c-.073-.208-.147-.427-.224-.634a8.662,8.662,0,0,0-.7-1.478,1.926,1.926,0,0,0-.486-.578,16.28,16.28,0,0,1,.885,2.186.618.618,0,0,1-.2-.291c-.027-.063-.058-.13-.088-.19a10.083,10.083,0,0,0-1.076-1.8,1.7,1.7,0,0,0-.459-.434c-.019-.012-.053-.037-.066-.022a14.889,14.889,0,0,1,.973,1.735,7.332,7.332,0,0,0-.788-.93,2.782,2.782,0,0,0-.871-.639,11.016,11.016,0,0,1,.947,1.193c-.261-.242-.513-.488-.776-.722a2.257,2.257,0,0,0,.395.671,6.693,6.693,0,0,0,.483.556c.247.259.5.51.747.759a1.582,1.582,0,0,1,.364.442c-.51-.369-1.013-.769-1.532-1.117a1.893,1.893,0,0,0,.425.615c.158.164.324.315.488.456.281.246.581.493.874.729a.422.422,0,0,1,.181.217c-.444-.271-.9-.556-1.359-.8a.22.22,0,0,0-.086-.044,1.623,1.623,0,0,0,.4.522,4.539,4.539,0,0,0,.461.374c.266.2.547.393.825.581a.525.525,0,0,1,.12.086c.025.034.029.073.054.108-.425-.168-.859-.383-1.291-.537-.008,0-.025-.015-.036-.005a1.979,1.979,0,0,0,.791.7c.242.146.5.285.754.412.065.034.122.046.148.136-.415-.122-.82-.276-1.235-.385a1.674,1.674,0,0,0,.735.61,6.5,6.5,0,0,0,.707.319c.056.022.1.03.13.1-.356-.073-.724-.186-1.074-.268-.024-.005-.052-.027-.064-.01a1.381,1.381,0,0,0,.544.481,3.327,3.327,0,0,1,.137.31l-.18-.034a3.74,3.74,0,0,0-.391-.595,1.5,1.5,0,0,0-.417-.393,2.894,2.894,0,0,1,.556,1.24,5.341,5.341,0,0,0-.868-1.313,1.537,1.537,0,0,0-.473-.381,3.682,3.682,0,0,1,.6.94.905.905,0,0,1,.09.329,5.572,5.572,0,0,0-1-1.322,1.641,1.641,0,0,0-.519-.351,3.751,3.751,0,0,1,.864,1.3,6.363,6.363,0,0,0-1.21-1.335,1.433,1.433,0,0,0-.542-.293,4.878,4.878,0,0,1,1.054,1.31,6.972,6.972,0,0,0-1.584-1.372,1.321,1.321,0,0,0-.569-.21s-.025-.008-.025.005c.122.085.259.19.39.291a5.084,5.084,0,0,1,1.049,1.027,9.025,9.025,0,0,0-.871-.69,4.791,4.791,0,0,0-.978-.551,1.106,1.106,0,0,0-.6-.114.039.039,0,0,0-.031.01,7.754,7.754,0,0,1,1.745,1.171.622.622,0,0,1-.164-.091c-.168-.11-.337-.207-.5-.3a5.148,5.148,0,0,0-1.347-.542,1.041,1.041,0,0,0-.632.014,6.575,6.575,0,0,1,1.82.815,5.064,5.064,0,0,0-1.134-.341,2.657,2.657,0,0,0-1.068.015,7.082,7.082,0,0,1,1.035.246c.349.1.7.212,1.044.33-.6-.036-1.21-.115-1.822-.19a.761.761,0,0,0,.33.2c.117.042.234.078.346.107a11.923,11.923,0,0,0,1.352.247c.169.024.341.049.5.068a.406.406,0,0,1,.17.037,16.925,16.925,0,0,1-2.027-.041.861.861,0,0,0,.347.2,2.522,2.522,0,0,0,.342.093,5.726,5.726,0,0,0,.678.1c.224.017.444.042.668.051s.441.024.666.031a3.685,3.685,0,0,1-.9.12c-.286.019-.583.02-.867.02a.085.085,0,0,0-.058,0,1.3,1.3,0,0,0,.654.252,5.5,5.5,0,0,0,.632.063,9.061,9.061,0,0,0,.935,0c.1-.007.2-.017.3-.014a4.454,4.454,0,0,1-1.128.3c-.112.019-.23.024-.341.034-.013,0-.037,0-.039.008a1.06,1.06,0,0,0,.571.2,6.057,6.057,0,0,0,1.581-.115s.022-.014.024,0a2.9,2.9,0,0,1-1.325.456c-.017,0-.037.005-.037.014a.931.931,0,0,0,.529.166,2.484,2.484,0,0,0,.5-.02,6.883,6.883,0,0,0,.856-.166.42.42,0,0,1,.117-.025,1.266,1.266,0,0,1-.593.385,3.373,3.373,0,0,1-.59.173c-.01,0-.032,0-.032.019a.819.819,0,0,0,.49.139,2.52,2.52,0,0,0,.469-.039,5.773,5.773,0,0,0,.849-.22c.017-.007.036-.02.053-.014a2.177,2.177,0,0,1-1.1.647.7.7,0,0,0,.449.108,1.882,1.882,0,0,0,.425-.063,4.607,4.607,0,0,0,.761-.266.085.085,0,0,1,.051-.014,1.334,1.334,0,0,1-.439.451,3.11,3.11,0,0,1-.456.261,1.549,1.549,0,0,0-.31-.137c0,.012.008.014.017.019.058.051.114.1.164.156a2.269,2.269,0,0,1,.495.627,4.668,4.668,0,0,0-.995-.717,1.306,1.306,0,0,0-.412-.134c-.012.005.01.012.014.019a2.607,2.607,0,0,1,.42.322,1.526,1.526,0,0,1,.376.434,5.838,5.838,0,0,0-.71-.478,2.32,2.32,0,0,0-.618-.244.69.69,0,0,0-.252-.022,2.661,2.661,0,0,1,.515.3,1.533,1.533,0,0,1,.427.41,3.906,3.906,0,0,0-1.233-.573,1.335,1.335,0,0,0-.525-.032,2.181,2.181,0,0,1,1.083.615,3.884,3.884,0,0,0-1.4-.459,1.493,1.493,0,0,0-.566.039,2.6,2.6,0,0,1,.683.166,1.507,1.507,0,0,1,.551.327,4.577,4.577,0,0,0-.971-.281,2.427,2.427,0,0,0-1.151.059,3.116,3.116,0,0,1,.754.091,1.713,1.713,0,0,1,.474.183.408.408,0,0,1,.125.095,4.32,4.32,0,0,0-.51-.122,4.079,4.079,0,0,0-.549-.071,2.618,2.618,0,0,0-1.169.163,3.5,3.5,0,0,1,.818.032,1.983,1.983,0,0,1,.681.208,4.969,4.969,0,0,0-1.184-.08,2.5,2.5,0,0,0-1.184.286,4.549,4.549,0,0,1,.861-.047,2.976,2.976,0,0,1,.793.129,5.659,5.659,0,0,0-2.132.291,1.309,1.309,0,0,0-.491.29c-.007.007-.019.014-.012.025a4.951,4.951,0,0,1,1.92-.23,6.645,6.645,0,0,0-1.562.341,3.656,3.656,0,0,0-.639.29,1.12,1.12,0,0,0-.459.427,6.209,6.209,0,0,1,2.021-.615.436.436,0,0,1-.186.071c-.064.019-.127.039-.193.061a5.023,5.023,0,0,0-1.667.876,1.757,1.757,0,0,0-.244.246.7.7,0,0,0-.166.3,5.118,5.118,0,0,1,1.732-.94c-.086.059-.186.105-.276.158a3.24,3.24,0,0,0-.657.532,2.73,2.73,0,0,0-.7.961c.009,0,.014-.01.017-.015.132-.1.263-.224.4-.336.29-.242.578-.5.9-.718.163-.11.322-.222.493-.317-.225.237-.456.483-.686.722-.112.119-.225.242-.337.361-.09.092-.166.19-.251.28a.445.445,0,0,0-.075.095.775.775,0,0,0,.369-.161c.1-.071.2-.146.293-.225.366-.313.72-.64,1.079-.962.132-.12.271-.241.407-.361.042-.039.078-.1.144-.107-.444.571-.944,1.1-1.4,1.664a.769.769,0,0,0,.356-.158,2.406,2.406,0,0,0,.29-.22c.186-.158.359-.319.529-.483.3-.29.59-.588.868-.886a.837.837,0,0,1,.124-.122,4.443,4.443,0,0,1-.542.8c-.181.241-.38.478-.573.708-.012.014-.034.031-.029.044a1.367,1.367,0,0,0,.612-.342c.171-.139.325-.293.481-.447.3-.307.576-.639.861-.966a5.033,5.033,0,0,1-.781,1.361c-.012.014-.031.025-.025.036a1.066,1.066,0,0,0,.525-.286,5.766,5.766,0,0,0,.983-1.166.552.552,0,0,1,.073-.112,2.735,2.735,0,0,1-.527,1.195,1.291,1.291,0,0,0-.1.147.921.921,0,0,0,.461-.241c.161,0,.317.007.474.022-.007.007-.017.014-.014.025a.47.47,0,0,0,.085-.019,4.224,4.224,0,0,1,.556.1.369.369,0,0,1,.073.025c-.029.02-.051.022-.08.042a4.6,4.6,0,0,0-.991-.015,2.536,2.536,0,0,0-1.074.3,5.616,5.616,0,0,1,1.539.015c-.022.014-.049.024-.059.039a5.366,5.366,0,0,0-1.642.18,2.1,2.1,0,0,0-.59.268,6.771,6.771,0,0,1,1.684-.11c-.061.051-.112.034-.178.037a7.109,7.109,0,0,0-.935.112,3.433,3.433,0,0,0-1.286.473,9.279,9.279,0,0,1,1.8-.219c-.064.068-.13.058-.213.069a7.958,7.958,0,0,0-1.069.212,5.582,5.582,0,0,0-.635.21,1.979,1.979,0,0,0-.63.364,10.391,10.391,0,0,1,1.935-.39.982.982,0,0,0-.1.08,9.252,9.252,0,0,0-2.037.708,2.093,2.093,0,0,0-.634.447,13.663,13.663,0,0,1,2.091-.663c-.03.019-.056.061-.09.081s-.054.017-.088.03c-.207.075-.422.153-.632.234a8.985,8.985,0,0,0-1.466.725,1.816,1.816,0,0,0-.568.495,15.561,15.561,0,0,1,2.17-.918.63.63,0,0,1-.288.2c-.063.031-.129.061-.191.093a10.317,10.317,0,0,0-1.779,1.1,1.719,1.719,0,0,0-.422.463c-.017.02-.039.056-.025.068a15.418,15.418,0,0,1,1.725-1,6.744,6.744,0,0,0-.92.8,2.787,2.787,0,0,0-.629.879,11.5,11.5,0,0,1,1.181-.961c-.236.259-.48.522-.71.785a2.361,2.361,0,0,0,.668-.4,6.953,6.953,0,0,0,.546-.493c.256-.247.5-.508.749-.756a1.538,1.538,0,0,1,.437-.369c-.361.512-.752,1.02-1.095,1.542a1.793,1.793,0,0,0,.608-.432,5.773,5.773,0,0,0,.449-.495c.242-.285.483-.59.72-.884a.388.388,0,0,1,.214-.185c-.268.449-.544.915-.786,1.367a.3.3,0,0,0-.042.09,1.732,1.732,0,0,0,.52-.4c.134-.151.249-.31.363-.466.195-.271.383-.557.569-.837a.649.649,0,0,1,.085-.12c.034-.027.073-.031.109-.058-.163.429-.373.864-.517,1.3,0,.01-.014.027,0,.037a1.981,1.981,0,0,0,.691-.8c.139-.246.274-.507.4-.761.034-.064.046-.124.136-.147-.115.413-.266.818-.369,1.237a1.683,1.683,0,0,0,.6-.744,7.066,7.066,0,0,0,.3-.708c.02-.059.029-.107.1-.136-.066.358-.17.725-.251,1.078-.005.022-.022.053-.007.064a1.552,1.552,0,0,0,.541-.69c.092-.212.173-.439.246-.663.019-.063.017-.1.095-.134-.024.327-.078.661-.132.976,0,.022-.01.053,0,.059a1.135,1.135,0,0,0,.435-.557c.107-.053.212-.1.319-.146v.186a3.829,3.829,0,0,0-.452.283,1.626,1.626,0,0,0-.408.4,2.891,2.891,0,0,1,1.264-.5,5.519,5.519,0,0,0-1.35.807,1.581,1.581,0,0,0-.4.458,3.706,3.706,0,0,1,.968-.557.948.948,0,0,1,.332-.076,5.767,5.767,0,0,0-1.361.942,1.569,1.569,0,0,0-.376.5,3.687,3.687,0,0,1,1.337-.8,6.235,6.235,0,0,0-1.384,1.149,1.38,1.38,0,0,0-.315.529,4.933,4.933,0,0,1,1.354-1,6.978,6.978,0,0,0-1.444,1.525,1.307,1.307,0,0,0-.232.557c0,.008-.01.024.005.027.088-.114.2-.249.307-.374a5.029,5.029,0,0,1,1.074-1,8.455,8.455,0,0,0-.732.842,4.837,4.837,0,0,0-.59.949,1.089,1.089,0,0,0-.139.591c0,.008,0,.025.01.032a7.677,7.677,0,0,1,1.244-1.693.577.577,0,0,1-.1.161c-.117.161-.219.327-.32.491a5.121,5.121,0,0,0-.6,1.32,1.042,1.042,0,0,0-.014.63,6.641,6.641,0,0,1,.891-1.781,5.074,5.074,0,0,0-.388,1.118,2.636,2.636,0,0,0-.03,1.066,6.546,6.546,0,0,1,.293-1.023c.114-.344.237-.69.375-1.03-.063.6-.168,1.206-.269,1.813a.772.772,0,0,0,.215-.32,2.438,2.438,0,0,0,.122-.342,12.378,12.378,0,0,0,.307-1.34c.029-.166.063-.334.09-.5a.494.494,0,0,1,.044-.171,17.025,17.025,0,0,1-.125,2.023.888.888,0,0,0,.212-.339,3.035,3.035,0,0,0,.107-.341,5.768,5.768,0,0,0,.125-.668c.027-.224.061-.444.08-.664s.042-.441.058-.662a3.706,3.706,0,0,1,.086.91c.005.285-.007.579-.02.866,0,.015-.01.037,0,.054a1.282,1.282,0,0,0,.281-.64,4.343,4.343,0,0,0,.086-.629,9.1,9.1,0,0,0,.042-.932,2.663,2.663,0,0,1,0-.307,4.4,4.4,0,0,1,.253,1.14,2.852,2.852,0,0,1,.02.339c0,.015,0,.037.007.041a1.028,1.028,0,0,0,.224-.561,6.013,6.013,0,0,0-.047-1.583c0-.005-.012-.022,0-.025a2.882,2.882,0,0,1,.4,1.344c0,.014,0,.034.012.036a.9.9,0,0,0,.186-.52,2.6,2.6,0,0,0,.007-.5,7.705,7.705,0,0,0-.132-.862.462.462,0,0,1-.024-.119,1.266,1.266,0,0,1,.361.608,3.339,3.339,0,0,1,.149.6c0,.01,0,.029.013.032a.793.793,0,0,0,.163-.485,2.523,2.523,0,0,0-.02-.469,5.106,5.106,0,0,0-.185-.856c0-.017-.017-.036-.008-.054a2.206,2.206,0,0,1,.6,1.123.7.7,0,0,0,.13-.444,1.762,1.762,0,0,0-.046-.424,5,5,0,0,0-.23-.773c-.007-.015-.019-.03-.014-.049a1.3,1.3,0,0,1,.43.457,3.71,3.71,0,0,1,.239.447,1.183,1.183,0,0,0-.056.154c.266-.259.546-.552.817-.8a.232.232,0,0,1-.075.136c-.069.081-.139.168-.2.246a3.014,3.014,0,0,0-.651,1.137c0,.012.01,0,.01,0a.366.366,0,0,0,.039-.046c.119-.147.241-.285.357-.429.135-.166.28-.327.417-.476a.338.338,0,0,0-.005.059,7.161,7.161,0,0,0-.722,1.15,1.636,1.636,0,0,0-.139.495c.063-.093.132-.185.193-.281s.136-.186.2-.283c.13-.19.271-.378.407-.551a.273.273,0,0,1-.075.186c-.065.11-.127.222-.19.327a5.416,5.416,0,0,0-.444.937,1.444,1.444,0,0,0-.11.583,13.019,13.019,0,0,1,.79-1.389c0,.024,0,.047,0,.068a10.411,10.411,0,0,0-.466.988,4,4,0,0,0-.18.549,1.907,1.907,0,0,0-.066.646,1.511,1.511,0,0,0,.085-.205,12.775,12.775,0,0,1,.644-1.391c.012.08-.025.12-.058.19-.056.137-.112.273-.163.4a6.1,6.1,0,0,0-.341,1.183,1.658,1.658,0,0,0,0,.671,11.545,11.545,0,0,1,.625-1.782.2.2,0,0,1-.014.149,8.831,8.831,0,0,0-.315,1.174,2.994,2.994,0,0,0-.024,1.384,11.609,11.609,0,0,1,.474-2,.5.5,0,0,1-.012.293,8.455,8.455,0,0,0-.164,2.115,1.769,1.769,0,0,0,.161.654,12.232,12.232,0,0,1,.224-2.259.382.382,0,0,1,.024.21,8.9,8.9,0,0,0,.071,2.4,1.674,1.674,0,0,0,.215.612c.007.012.014.032.022.024a13.187,13.187,0,0,1-.036-2.42.61.61,0,0,1,.059.125,2,2,0,0,1,.015.225,7.932,7.932,0,0,0,.391,2.264,1.188,1.188,0,0,0,.393.6,10.225,10.225,0,0,1-.371-1.994,3.837,3.837,0,0,0,.8,1.574,1.37,1.37,0,0,0,.459.352,6.116,6.116,0,0,1-.659-1.4c.174.261.363.518.552.761a.557.557,0,0,0,.086.1,1.787,1.787,0,0,0-.21-.781c-.1-.229-.225-.447-.346-.661-.176-.319-.357-.651-.522-.99a1.017,1.017,0,0,1-.144-.447,8.233,8.233,0,0,0,.884,1.064,3.553,3.553,0,0,0,.349.307,1.231,1.231,0,0,0-.2-.659c-.112-.188-.242-.359-.361-.532-.207-.3-.427-.615-.623-.935a.813.813,0,0,1-.08-.144.789.789,0,0,1,0-.125,5.242,5.242,0,0,0,1.034.957,1.167,1.167,0,0,0,.174.107.929.929,0,0,0-.2-.564,5.079,5.079,0,0,0-.342-.435c-.119-.137-.235-.281-.349-.43-.083-.1-.169-.22-.252-.33-.025-.03-.076-.081-.081-.114a.524.524,0,0,1,0-.127,4.985,4.985,0,0,0,1.2.754.736.736,0,0,0-.195-.461,2.97,2.97,0,0,0-.32-.346c-.227-.217-.458-.442-.683-.656a.347.347,0,0,1,0-.085,8.965,8.965,0,0,0,1.157.6.682.682,0,0,0-.174-.41,2.516,2.516,0,0,0-.291-.308c-.21-.188-.442-.364-.669-.532,0-.022,0-.044,0-.066.307.127.59.273.885.41.676,2.342,1.554,5.224,2.621,8.408-.032.024-.068.042-.1.068a1.269,1.269,0,0,0-2.218.849c0,.041.005.078.009.117a.752.752,0,0,0,.734,1.311,1.247,1.247,0,0,1,.646,1.6,1.464,1.464,0,0,1-2.208.617,2.381,2.381,0,0,0-4.114-.222.568.568,0,0,0-1.017.347.571.571,0,0,0,.286.49.729.729,0,0,0-.208.917.567.567,0,0,0-.222.183,1.765,1.765,0,0,0-1.594,1.408l-.036,0a1.08,1.08,0,1,0,.781,1.821,1.779,1.779,0,0,0,.993.3,1.744,1.744,0,0,0,.91-.261,1.492,1.492,0,0,0,1.291.83.8.8,0,0,0-.015.158.781.781,0,0,1-.761,1.045.817.817,0,0,0,1.495.454,1.08,1.08,0,0,0,1.969-.4.7.7,0,0,0,.3.071.738.738,0,0,0,.281-.058.506.506,0,0,0-.037.152.549.549,0,0,0,.115.325.834.834,0,0,0-.49.757c0,.017,0,.034.005.051a.816.816,0,0,0,.274,1.588.808.808,0,0,0,.663-.363,14.259,14.259,0,0,0,.435,1.594,8.973,8.973,0,0,1-6-2.608h-1.472a9.894,9.894,0,0,0,7.872,3.74l.044,2.565c1.264,2.879,3.445,2.7,6.173,4.227q.513.872,1.1,1.694l0,0,0,.005c.322.456.661.9,1.013,1.327a11.614,11.614,0,0,1,1.245,7.323c-.2,1.83-.439,3.773-.736,5.825-.383,2.652-.73,7.7-1.052,10.087-2.721-.63-5.664-1.518-7.574-5.1a3.3,3.3,0,0,0-1.774-1.2l0,0a4.111,4.111,0,0,1-1.839-1.217c-1.894-2.133-3.146-6.249-3.146-6.249-.408-1.167-.829-2.22-1.252-3.163-2.267-6.159-6.1-8.25-6.1-8.25v0c-.037-.024-.066-.042-.1-.066,0,0-.679-.363-.085-1.962,0,0,.161-.539.537-.546,0,0,.122-.3-.52-.534-.725-.258-.749.1-.749.1s.246.2.063.742a10.4,10.4,0,0,1-1.191,2.572,1.917,1.917,0,0,0-1.866.983c-.376.539-2.008,1.466-3.307,3.041-1.108,1.345-1.057,1.628-.627,1.9a1.941,1.941,0,0,0,1.682-.286,2.553,2.553,0,0,1,2.052-.7,10.128,10.128,0,0,0,3.811-.078,15.815,15.815,0,0,1,1.733,4.253c.291,1.142.6,2.487.911,4.046,1.13,5.736,2.679,9.133,3.572,12.154a8.1,8.1,0,0,1,.142,2.437v.007a8.151,8.151,0,0,0,.266,4.385,6.757,6.757,0,0,0,1,1.8,2.817,2.817,0,0,0,.578.481c.051.034.1.066.152.1l.01.007a20.136,20.136,0,0,0,.537,2.872c.468,2.7.969,5.78.781,7.315a13.176,13.176,0,0,0-.144,2.438,45.8,45.8,0,0,1,.693,6.849,6.07,6.07,0,0,0-1.449-.22c-.047,0-.1,0-.146,0s-.112,0-.171.005a1.422,1.422,0,0,0,.283-1.161c-.268-1.218-1.029-.845-1.51-2.952a4.418,4.418,0,0,0-1.877-3.043,1.816,1.816,0,0,0-.6-1.874,5.955,5.955,0,0,0-1.289-.971,4.251,4.251,0,0,1-1.274-.934,2.739,2.739,0,0,0-.976-.618l-.015-.005h0a5.214,5.214,0,0,0-1.659-.273,5.089,5.089,0,0,0-3.841,1.73c-.715.266-1.654.739-1.481,1.354a2.8,2.8,0,0,1-1.369.723,3.791,3.791,0,0,0-1.459.851.974.974,0,0,0,.366.6,1.672,1.672,0,0,0,.569,1.423,1.056,1.056,0,0,0,0,1.317l.019.019a2.276,2.276,0,0,0,.727.52,1.492,1.492,0,0,1,1.262-.72,2.952,2.952,0,0,1,.7.012,4.085,4.085,0,0,0,.139,3.018c1.9,5.056-.239,5.1-.239,5.1a3.652,3.652,0,0,0,1.069,2.308,2.872,2.872,0,0,0,.442.322h-3.218c-1.025,0-1.613-.229-2.506-.229a2.844,2.844,0,0,0-1.293.227,2.345,2.345,0,0,0-1.476,2.154h15.221a1.03,1.03,0,0,0-.254-1.191h7.6a2.2,2.2,0,0,0-.329,1.191h52.552a6.123,6.123,0,0,1,.3-1.3,5.643,5.643,0,0,1,.961-1.715c-.207-.127-.415-.252-.634-.371a14.968,14.968,0,0,0-5.022-1.645,17.215,17.215,0,0,0-2.447-.176H679.1a18.18,18.18,0,0,1,.076-3.119,16.27,16.27,0,0,0,.335-2.762c.014-.141.4-1.8.515-3.045,1.566-.3,1.974-1.942,1.982-3a3.911,3.911,0,0,1,.086-.722,1.306,1.306,0,0,1,.227-.418c1.662-1.027,1.964-3.5,2.006-4.726a.981.981,0,0,0,.144-.617c-.015-.124-.022-.247-.027-.371.53-1.491.147-2.348.569-2.947a.857.857,0,0,0,.171-.634,1.387,1.387,0,0,1,.029-.669,5.466,5.466,0,0,0,2.33-.6c1.42-.959,1.274-1.86,1.247-1.91" transform="translate(-7111.919 2881.527)" fill="#c36d29"/>
  </g>
</svg>
